<svg xmlns="http://www.w3.org/2000/svg" viewBox="0 0 15 15" height="56.693" width="56.693"><defs><linearGradient id="h" spreadMethod="pad" gradientTransform="matrix(0 -2545.94 -2545.94 0 6593.38 5252.37)" gradientUnits="userSpaceOnUse" y2="0" x2="1" y1="0" x1="0"><stop offset="0" stop-color="#d7e6f7"/><stop offset=".229" stop-color="#d7e6f7"/><stop offset=".995" stop-color="#f3f3fb"/><stop offset="1" stop-color="#f3f3fb"/></linearGradient><linearGradient id="i" spreadMethod="pad" gradientTransform="matrix(0 -2545.94 -2545.94 0 6593.38 5252.37)" gradientUnits="userSpaceOnUse" y2="0" x2="1" y1="0" x1="0"><stop offset="0" stop-color="#d9eefa"/><stop offset=".229" stop-color="#d9eefa"/><stop offset=".995" stop-color="#fff"/><stop offset="1" stop-color="#fff"/></linearGradient><linearGradient id="g" spreadMethod="pad" gradientTransform="matrix(0 -2545.94 -2545.94 0 6593.38 5252.37)" gradientUnits="userSpaceOnUse" y2="0" x2="1" y1="0" x1="0"><stop offset="0" stop-color="#c5dbf3"/><stop offset=".229" stop-color="#c5dbf3"/><stop offset=".995" stop-color="#eeeef9"/><stop offset="1" stop-color="#eeeef9"/></linearGradient><linearGradient id="f" spreadMethod="pad" gradientTransform="matrix(0 -2545.94 -2545.94 0 6593.38 5252.37)" gradientUnits="userSpaceOnUse" y2="0" x2="1" y1="0" x1="0"><stop offset="0" stop-color="#c8e7f7"/><stop offset=".229" stop-color="#c8e7f7"/><stop offset=".995" stop-color="#fff"/><stop offset="1" stop-color="#fff"/></linearGradient><linearGradient id="c" spreadMethod="pad" gradientTransform="matrix(0 -2545.94 -2545.94 0 6593.38 5252.37)" gradientUnits="userSpaceOnUse" y2="0" x2="1" y1="0" x1="0"><stop offset="0" stop-color="#b2ddf4"/><stop offset=".229" stop-color="#b2ddf4"/><stop offset=".995" stop-color="#fff"/><stop offset="1" stop-color="#fff"/></linearGradient><linearGradient id="e" spreadMethod="pad" gradientTransform="matrix(0 -2545.94 -2545.94 0 6593.38 5252.37)" gradientUnits="userSpaceOnUse" y2="0" x2="1" y1="0" x1="0"><stop offset="0" stop-color="#abdbf4"/><stop offset=".229" stop-color="#abdbf4"/><stop offset=".995" stop-color="#e4f5fc"/><stop offset="1" stop-color="#e4f5fc"/></linearGradient><linearGradient id="d" spreadMethod="pad" gradientTransform="matrix(0 -2545.94 -2545.94 0 6593.38 5252.37)" gradientUnits="userSpaceOnUse" y2="0" x2="1" y1="0" x1="0"><stop offset="0" stop-color="#aecdee"/><stop offset=".229" stop-color="#aecdee"/><stop offset=".995" stop-color="#e7e7f7"/><stop offset="1" stop-color="#e7e7f7"/></linearGradient><linearGradient id="b" spreadMethod="pad" gradientTransform="matrix(0 -2545.94 -2545.94 0 6593.38 5252.37)" gradientUnits="userSpaceOnUse" y2="0" x2="1" y1="0" x1="0"><stop offset="0" stop-color="#86cbef"/><stop offset=".229" stop-color="#86cbef"/><stop offset=".995" stop-color="#d9f0fb"/><stop offset="1" stop-color="#d9f0fb"/></linearGradient><linearGradient id="a" spreadMethod="pad" gradientTransform="matrix(0 -2545.94 -2545.94 0 6593.38 5252.37)" gradientUnits="userSpaceOnUse" y2="0" x2="1" y1="0" x1="0"><stop offset="0" stop-color="#8bb7e7"/><stop offset=".229" stop-color="#8bb7e7"/><stop offset=".995" stop-color="#dddcf3"/><stop offset="1" stop-color="#dddcf3"/></linearGradient><path d="M-84.525-27.457h326.05V78.457h-326.05z" id="j"/></defs><g transform="matrix(1.28016 0 0 1.28016 99.699 394.52)"><path d="M-71.426-306.321c-.64 0-.727.009-1.082.106a5.22 5.22 0 0 0-1.322.59c-.123.082-.363.281-.534.443-.17.163-.387.335-.483.383-.881.445-1.6 1.334-1.86 2.3-.114.428-.114 1.146 0 1.584.11.417.38.95.64 1.26.597.717 1.601 1.2 2.747 1.324.265.03.956-.01 1.198-.07.172-.04.365-.049.741-.032.57.025.934-.018 1.424-.17 1.212-.377 2.23-1.422 2.566-2.637a4.03 4.03 0 0 0-1.027-3.888c-.526-.526-1.157-.882-1.942-1.093-.333-.09-.44-.1-1.066-.1zm.256.496c.33.002.652.06.963.174.982.358 1.793 1.302 2.051 2.386.068.286.078.422.063.862-.035.977-.372 1.774-1.031 2.437a3.08 3.08 0 0 1-.917.673 1.584 1.584 0 0 1-.318.136c-.03 0 .054-.107.186-.238.613-.607.93-1.351.93-2.18 0-1.41-.769-2.516-2.256-3.246-.532-.26-.993-.404-1.303-.404-.102 0-.194-.015-.206-.034-.032-.05.454-.291.818-.405a3.33 3.33 0 0 1 1.02-.16zm-1.745 1.223c.476-.004.823.16 1.194.557.47.502.632 1.094.488 1.774-.154.729-.595 1.23-1.23 1.399-.813.216-1.655-.283-1.956-1.158-.345-1.001.004-2.019.832-2.426.209-.103.313-.129.575-.143l.097-.003zm-2.314.904l-.026.155c-.203 1.207.06 2.445.721 3.403.259.374.793.876 1.17 1.1.161.095.294.186.294.202.001.037-.032.034-.366-.028-1.065-.198-1.953-1.025-2.306-2.147-.078-.248-.09-.367-.09-.849.001-.418.02-.624.071-.812.085-.307.297-.752.432-.908zm4.778.29c.036 0 .324.662.378.87.095.364.115.953.043 1.294-.075.358-.344.91-.592 1.217a3.475 3.475 0 0 1-1.015.829c-.167.086-.353.156-.413.155-.148-.002-.647-.185-.885-.324-.55-.32-1.093-.87-1.346-1.363l-.064-.124.284.153c.946.51 2.122.378 2.874-.322a2.24 2.24 0 0 0 .656-1.022c.093-.297.1-.363.083-.843a4.557 4.557 0 0 1-.003-.52z" fill="#14aae3"/><rect width="11.717" height="11.717" x="-77.88" y="-308.18" rx=".567" ry=".567" fill="none" paint-order="fill markers stroke"/></g></svg>