<svg xmlns="http://www.w3.org/2000/svg" viewBox="0 0 15 15" height="56.693" width="56.693"><defs><linearGradient id="h" spreadMethod="pad" gradientTransform="matrix(0 -2545.94 -2545.94 0 6593.38 5252.37)" gradientUnits="userSpaceOnUse" y2="0" x2="1" y1="0" x1="0"><stop offset="0" stop-color="#d7e6f7"/><stop offset=".229" stop-color="#d7e6f7"/><stop offset=".995" stop-color="#f3f3fb"/><stop offset="1" stop-color="#f3f3fb"/></linearGradient><linearGradient id="i" spreadMethod="pad" gradientTransform="matrix(0 -2545.94 -2545.94 0 6593.38 5252.37)" gradientUnits="userSpaceOnUse" y2="0" x2="1" y1="0" x1="0"><stop offset="0" stop-color="#d9eefa"/><stop offset=".229" stop-color="#d9eefa"/><stop offset=".995" stop-color="#fff"/><stop offset="1" stop-color="#fff"/></linearGradient><linearGradient id="g" spreadMethod="pad" gradientTransform="matrix(0 -2545.94 -2545.94 0 6593.38 5252.37)" gradientUnits="userSpaceOnUse" y2="0" x2="1" y1="0" x1="0"><stop offset="0" stop-color="#c5dbf3"/><stop offset=".229" stop-color="#c5dbf3"/><stop offset=".995" stop-color="#eeeef9"/><stop offset="1" stop-color="#eeeef9"/></linearGradient><linearGradient id="f" spreadMethod="pad" gradientTransform="matrix(0 -2545.94 -2545.94 0 6593.38 5252.37)" gradientUnits="userSpaceOnUse" y2="0" x2="1" y1="0" x1="0"><stop offset="0" stop-color="#c8e7f7"/><stop offset=".229" stop-color="#c8e7f7"/><stop offset=".995" stop-color="#fff"/><stop offset="1" stop-color="#fff"/></linearGradient><linearGradient id="c" spreadMethod="pad" gradientTransform="matrix(0 -2545.94 -2545.94 0 6593.38 5252.37)" gradientUnits="userSpaceOnUse" y2="0" x2="1" y1="0" x1="0"><stop offset="0" stop-color="#b2ddf4"/><stop offset=".229" stop-color="#b2ddf4"/><stop offset=".995" stop-color="#fff"/><stop offset="1" stop-color="#fff"/></linearGradient><linearGradient id="e" spreadMethod="pad" gradientTransform="matrix(0 -2545.94 -2545.94 0 6593.38 5252.37)" gradientUnits="userSpaceOnUse" y2="0" x2="1" y1="0" x1="0"><stop offset="0" stop-color="#abdbf4"/><stop offset=".229" stop-color="#abdbf4"/><stop offset=".995" stop-color="#e4f5fc"/><stop offset="1" stop-color="#e4f5fc"/></linearGradient><linearGradient id="d" spreadMethod="pad" gradientTransform="matrix(0 -2545.94 -2545.94 0 6593.38 5252.37)" gradientUnits="userSpaceOnUse" y2="0" x2="1" y1="0" x1="0"><stop offset="0" stop-color="#aecdee"/><stop offset=".229" stop-color="#aecdee"/><stop offset=".995" stop-color="#e7e7f7"/><stop offset="1" stop-color="#e7e7f7"/></linearGradient><linearGradient id="b" spreadMethod="pad" gradientTransform="matrix(0 -2545.94 -2545.94 0 6593.38 5252.37)" gradientUnits="userSpaceOnUse" y2="0" x2="1" y1="0" x1="0"><stop offset="0" stop-color="#86cbef"/><stop offset=".229" stop-color="#86cbef"/><stop offset=".995" stop-color="#d9f0fb"/><stop offset="1" stop-color="#d9f0fb"/></linearGradient><linearGradient id="a" spreadMethod="pad" gradientTransform="matrix(0 -2545.94 -2545.94 0 6593.38 5252.37)" gradientUnits="userSpaceOnUse" y2="0" x2="1" y1="0" x1="0"><stop offset="0" stop-color="#8bb7e7"/><stop offset=".229" stop-color="#8bb7e7"/><stop offset=".995" stop-color="#dddcf3"/><stop offset="1" stop-color="#dddcf3"/></linearGradient><path d="M-84.525-27.457h326.05V78.457h-326.05z" id="j"/></defs><g transform="matrix(1.28016 0 0 1.28016 189 394.52)"><rect ry=".567" rx=".567" y="-308.18" x="-147.637" height="11.717" width="11.717" fill="none" paint-order="fill markers stroke"/><g fill-rule="evenodd"><path d="M-137.862-302.03c.11-1.216-.42-2.315-.989-2.955a3.873 3.873 0 0 0-4.34-1.068c-.537.211-1.105.592-1.47 1.014-.237.275-.436.526-.606.875-.505 1.034-.594 2.177-.184 3.268.199.528.404.827.742 1.24.268.327.722.674 1.105.877a3.89 3.89 0 0 0 3.245.188c.52-.206.87-.462 1.218-.766.079-.069.18-.173.248-.252.614-.705.94-1.42 1.031-2.421z" fill="#108de8"/><path d="M-144.047-303.492c.167-.008.512.532 1.667.166.264-.084.513-.189.766-.283.566-.211 1.098-.425 1.696-.193.11.043.263.122.34.188.123.104.094.232.094.429v1.578c0 .093.019.437-.026.495-.048.004-.237-.112-.352-.159-.43-.175-.901-.113-1.321.006-.78.221-1.643.724-2.478.417-.477-.175-.413-.255-.413-.615v-1.549c0-.124-.023-.394.027-.48z" fill="#fff"/></g></g></svg>