<svg xmlns="http://www.w3.org/2000/svg" viewBox="0 0 15 15" height="56.693" width="56.693"><defs><linearGradient id="h" spreadMethod="pad" gradientTransform="matrix(0 -2545.94 -2545.94 0 6593.38 5252.37)" gradientUnits="userSpaceOnUse" y2="0" x2="1" y1="0" x1="0"><stop offset="0" stop-color="#d7e6f7"/><stop offset=".229" stop-color="#d7e6f7"/><stop offset=".995" stop-color="#f3f3fb"/><stop offset="1" stop-color="#f3f3fb"/></linearGradient><linearGradient id="i" spreadMethod="pad" gradientTransform="matrix(0 -2545.94 -2545.94 0 6593.38 5252.37)" gradientUnits="userSpaceOnUse" y2="0" x2="1" y1="0" x1="0"><stop offset="0" stop-color="#d9eefa"/><stop offset=".229" stop-color="#d9eefa"/><stop offset=".995" stop-color="#fff"/><stop offset="1" stop-color="#fff"/></linearGradient><linearGradient id="g" spreadMethod="pad" gradientTransform="matrix(0 -2545.94 -2545.94 0 6593.38 5252.37)" gradientUnits="userSpaceOnUse" y2="0" x2="1" y1="0" x1="0"><stop offset="0" stop-color="#c5dbf3"/><stop offset=".229" stop-color="#c5dbf3"/><stop offset=".995" stop-color="#eeeef9"/><stop offset="1" stop-color="#eeeef9"/></linearGradient><linearGradient id="f" spreadMethod="pad" gradientTransform="matrix(0 -2545.94 -2545.94 0 6593.38 5252.37)" gradientUnits="userSpaceOnUse" y2="0" x2="1" y1="0" x1="0"><stop offset="0" stop-color="#c8e7f7"/><stop offset=".229" stop-color="#c8e7f7"/><stop offset=".995" stop-color="#fff"/><stop offset="1" stop-color="#fff"/></linearGradient><linearGradient id="c" spreadMethod="pad" gradientTransform="matrix(0 -2545.94 -2545.94 0 6593.38 5252.37)" gradientUnits="userSpaceOnUse" y2="0" x2="1" y1="0" x1="0"><stop offset="0" stop-color="#b2ddf4"/><stop offset=".229" stop-color="#b2ddf4"/><stop offset=".995" stop-color="#fff"/><stop offset="1" stop-color="#fff"/></linearGradient><linearGradient id="e" spreadMethod="pad" gradientTransform="matrix(0 -2545.94 -2545.94 0 6593.38 5252.37)" gradientUnits="userSpaceOnUse" y2="0" x2="1" y1="0" x1="0"><stop offset="0" stop-color="#abdbf4"/><stop offset=".229" stop-color="#abdbf4"/><stop offset=".995" stop-color="#e4f5fc"/><stop offset="1" stop-color="#e4f5fc"/></linearGradient><linearGradient id="d" spreadMethod="pad" gradientTransform="matrix(0 -2545.94 -2545.94 0 6593.38 5252.37)" gradientUnits="userSpaceOnUse" y2="0" x2="1" y1="0" x1="0"><stop offset="0" stop-color="#aecdee"/><stop offset=".229" stop-color="#aecdee"/><stop offset=".995" stop-color="#e7e7f7"/><stop offset="1" stop-color="#e7e7f7"/></linearGradient><linearGradient id="b" spreadMethod="pad" gradientTransform="matrix(0 -2545.94 -2545.94 0 6593.38 5252.37)" gradientUnits="userSpaceOnUse" y2="0" x2="1" y1="0" x1="0"><stop offset="0" stop-color="#86cbef"/><stop offset=".229" stop-color="#86cbef"/><stop offset=".995" stop-color="#d9f0fb"/><stop offset="1" stop-color="#d9f0fb"/></linearGradient><linearGradient id="a" spreadMethod="pad" gradientTransform="matrix(0 -2545.94 -2545.94 0 6593.38 5252.37)" gradientUnits="userSpaceOnUse" y2="0" x2="1" y1="0" x1="0"><stop offset="0" stop-color="#8bb7e7"/><stop offset=".229" stop-color="#8bb7e7"/><stop offset=".995" stop-color="#dddcf3"/><stop offset="1" stop-color="#dddcf3"/></linearGradient><path d="M-84.525-27.457h326.05V78.457h-326.05z" id="j"/></defs><g transform="matrix(1.28016 0 0 1.28016 121.425 394.52)"><rect ry=".567" rx=".567" y="-308.18" x="-94.851" height="11.717" width="11.717" fill="none" paint-order="fill markers stroke"/><path d="M-92.684-304.497h6.949c.154 0 .28.126.28.28v1.286h-2.927a.521.521 0 0 0-.52.52v1.847c0 .285.234.52.52.52h2.927v1.443c0 .154-.126.28-.28.28h-6.754a.466.466 0 0 1-.475-.475v-5.42c0-.155.126-.28.28-.28zm4.139-1.776l-2.19 1.198 2.996-.89-.441-.302a.352.352 0 0 0-.365-.007zm1.172.671l-1.758.61h2.537l-.302-.4c-.146-.192-.199-.297-.477-.21zm-.978 3.17h3.33v1.785h-3.33zm.885.568a.328.328 0 1 1 0 .657.328.328 0 0 1 0-.657z" fill="#5da4da" fill-rule="evenodd"/></g></svg>