<svg xmlns="http://www.w3.org/2000/svg" xmlns:xlink="http://www.w3.org/1999/xlink" viewBox="0 0 108.479 82.021" height="310" width="410"><defs><clipPath id="cg" clipPathUnits="userSpaceOnUse"><path d="M7690.61 2741.14a39.746 39.746 0 0 0 8.58-30.2c-.73-5.65-1.41-10.9-1.6-12.45h-43.22c-13.32 0-24.46 10.15-25.68 23.41l-13.41 144.77h173.33l1.44-12.15-89.24-54.33c-20.59-12.53-25.39-40.35-10.2-59.05z"/></clipPath><linearGradient id="ch" spreadMethod="pad" gradientTransform="scale(923.26 -923.26) rotate(-44.061 .568 -11.394)" gradientUnits="userSpaceOnUse" y2="0" x2="1" y1="0" x1="0"><stop offset="0" stop-color="#91ceef"/><stop offset=".229" stop-color="#91ceef"/><stop offset=".995" stop-color="#fff"/><stop offset="1" stop-color="#fff"/></linearGradient><clipPath id="ce" clipPathUnits="userSpaceOnUse"><path d="M7202.07 3248.12c-4.22.69-8.48 1.32-12.81 1.89 4.56-.18 8.9-.76 12.81-1.89"/></clipPath><linearGradient id="cf" spreadMethod="pad" gradientTransform="matrix(0 -2545.94 -2545.94 0 6593.38 5252.37)" gradientUnits="userSpaceOnUse" y2="0" x2="1" y1="0" x1="0"><stop offset="0" stop-color="#afc7ee"/><stop offset=".229" stop-color="#afc7ee"/><stop offset=".995" stop-color="#d8d9f4"/><stop offset="1" stop-color="#d8d9f4"/></linearGradient><clipPath id="cc" clipPathUnits="userSpaceOnUse"><path d="M7912.76 3008.49h-126.61l-26.51 51.19v23.08h130.44l22.68-43.8v-30.47"/></clipPath><linearGradient id="h" spreadMethod="pad" gradientTransform="matrix(0 -2545.94 -2545.94 0 6593.38 5252.37)" gradientUnits="userSpaceOnUse" y2="0" x2="1" y1="0" x1="0"><stop offset="0" stop-color="#d7e6f7"/><stop offset=".229" stop-color="#d7e6f7"/><stop offset=".995" stop-color="#f3f3fb"/><stop offset="1" stop-color="#f3f3fb"/></linearGradient><clipPath id="ca" clipPathUnits="userSpaceOnUse"><path d="M7928.54 3008.49h-15.78v30.47l15.78-30.47m-168.9 51.19l-208.65 402.91c15.79 5.18 32.66 7.98 50.19 7.98 15.71 0 30.92-2.24 45.28-6.47a126.654 126.654 0 0 0 26.38 38.16l217.24-419.5h-130.44v-23.08"/></clipPath><linearGradient id="i" spreadMethod="pad" gradientTransform="matrix(0 -2545.94 -2545.94 0 6593.38 5252.37)" gradientUnits="userSpaceOnUse" y2="0" x2="1" y1="0" x1="0"><stop offset="0" stop-color="#d9eefa"/><stop offset=".229" stop-color="#d9eefa"/><stop offset=".995" stop-color="#fff"/><stop offset="1" stop-color="#fff"/></linearGradient><clipPath id="bY" clipPathUnits="userSpaceOnUse"><path d="M7786.15 3008.49h-26.51v51.19l26.51-51.19"/></clipPath><linearGradient id="g" spreadMethod="pad" gradientTransform="matrix(0 -2545.94 -2545.94 0 6593.38 5252.37)" gradientUnits="userSpaceOnUse" y2="0" x2="1" y1="0" x1="0"><stop offset="0" stop-color="#c5dbf3"/><stop offset=".229" stop-color="#c5dbf3"/><stop offset=".995" stop-color="#eeeef9"/><stop offset="1" stop-color="#eeeef9"/></linearGradient><clipPath id="bW" clipPathUnits="userSpaceOnUse"><path d="M7485.71 3008.49h-33.79c-8.11 25.78-17.23 51.32-27.36 74.88h61.15v-74.88"/></clipPath><linearGradient id="bX" spreadMethod="pad" gradientTransform="matrix(0 -2545.94 -2545.94 0 6593.38 5252.37)" gradientUnits="userSpaceOnUse" y2="0" x2="1" y1="0" x1="0"><stop offset="0" stop-color="#c3e5f7"/><stop offset=".229" stop-color="#c3e5f7"/><stop offset=".995" stop-color="#ecf8fd"/><stop offset="1" stop-color="#ecf8fd"/></linearGradient><clipPath id="bU" clipPathUnits="userSpaceOnUse"><path d="M7759.64 3008.49h-56.09c-6.96 27.67-17.93 49.5-35.2 51.23-.66.07-1.33.1-1.97.1-16.78 0-24.34-22.5-27.14-51.33h-18.01c-9.5 13.21-20.65 25.81-28.66 25.81-3.39 0-6.22-2.27-8.11-7.71-2.2-6.31-2.87-12.38-2.37-18.1h-96.38v74.88h-61.15c-24.93 57.97-55.97 103.92-93.03 111.7-34.25 26.81-77.62 44.56-129.46 53.05-3.91 1.13-8.25 1.71-12.81 1.89-3.82.5-7.68.95-11.59 1.36 47.72 34.66 106.45 55.11 169.95 55.11 32.78 0 64.34-5.49 93.75-15.56-.72 6.16-1.1 12.4-1.1 18.75 0 71.34 46.43 131.83 110.72 152.92l208.65-402.91v-51.19"/></clipPath><linearGradient id="f" spreadMethod="pad" gradientTransform="matrix(0 -2545.94 -2545.94 0 6593.38 5252.37)" gradientUnits="userSpaceOnUse" y2="0" x2="1" y1="0" x1="0"><stop offset="0" stop-color="#c8e7f7"/><stop offset=".229" stop-color="#c8e7f7"/><stop offset=".995" stop-color="#fff"/><stop offset="1" stop-color="#fff"/></linearGradient><clipPath id="bS" clipPathUnits="userSpaceOnUse"><path d="M7912.76 3038.96l-22.68 43.8h22.68v-43.8"/></clipPath><clipPath id="bQ" clipPathUnits="userSpaceOnUse"><path d="M7949.02 3008.49h-20.48l-15.78 30.47v43.8h-22.68l-217.24 419.5c22.88 22.76 54.42 36.82 89.24 36.82 69.93 0 126.61-56.67 126.61-126.6 0-13.7-2.18-26.92-6.25-39.29 2.08.13 4.17.19 6.25.19 55.57 0 100.6-45.03 100.6-100.57 0-27.17-10.8-51.82-28.3-69.9 40.32-13.13 69.45-50.97 69.45-95.65 0-49.01-35.03-89.81-81.42-98.77"/></clipPath><clipPath id="bO" clipPathUnits="userSpaceOnUse"><path d="M5651.86 3586.41h-142.38l-157.84 304.78a78.903 78.903 0 0 0 13.15-20.32c8.97 2.64 18.47 4.04 28.28 4.04 55.48 0 100.46-44.98 100.46-100.47 0-3.95-.23-7.86-.69-11.7 18.36 6.29 38.07 9.72 58.54 9.72 1.39 0 2.78-.02 4.16-.05l96.32-186"/></clipPath><clipPath id="bM" clipPathUnits="userSpaceOnUse"><path d="M5723.57 3646.73l-27.82 53.73a180.022 180.022 0 0 0 27.82-53.73"/></clipPath><clipPath id="bK" clipPathUnits="userSpaceOnUse"><path d="M5509.48 3586.41h-333.59c-28.96 5.59-50.83 31.06-50.83 61.67 0 27.89 18.19 51.51 43.36 59.71-10.93 11.29-17.67 26.68-17.67 43.65 0 34.67 28.12 62.78 62.81 62.78 1.3 0 2.6-.04 3.9-.11-2.54 7.72-3.9 15.97-3.9 24.52 0 43.66 35.38 79.05 79.05 79.05 23.47 0 44.56-10.24 59.03-26.49l157.84-304.78"/></clipPath><clipPath id="bI" clipPathUnits="userSpaceOnUse"><path d="M5732.01 3586.41h-49.31v129.49c4.63-4.9 8.98-10.05 13.05-15.44l27.82-53.73c5.53-17.34 8.52-35.81 8.52-54.98 0-1.8-.03-3.57-.08-5.34"/></clipPath><clipPath id="bG" clipPathUnits="userSpaceOnUse"><path d="M5682.7 3586.41h-30.84l-96.32 186c50.07-1.13 95.1-22.62 127.16-56.51v-129.49"/></clipPath><clipPath id="bE" clipPathUnits="userSpaceOnUse"><path d="M7550.99 3462.59L7009.41 4508.4h142.39l521.04-1006.14a126.654 126.654 0 0 1-26.38-38.16c-14.36 4.23-29.57 6.47-45.28 6.47-17.53 0-34.4-2.8-50.19-7.98"/></clipPath><linearGradient id="c" spreadMethod="pad" gradientTransform="matrix(0 -2545.94 -2545.94 0 6593.38 5252.37)" gradientUnits="userSpaceOnUse" y2="0" x2="1" y1="0" x1="0"><stop offset="0" stop-color="#b2ddf4"/><stop offset=".229" stop-color="#b2ddf4"/><stop offset=".995" stop-color="#fff"/><stop offset="1" stop-color="#fff"/></linearGradient><clipPath id="bC" clipPathUnits="userSpaceOnUse"><path d="M7989.3 2616.2l-38.25 73.86v17.22h38.25v-91.08"/></clipPath><linearGradient id="e" spreadMethod="pad" gradientTransform="matrix(0 -2545.94 -2545.94 0 6593.38 5252.37)" gradientUnits="userSpaceOnUse" y2="0" x2="1" y1="0" x1="0"><stop offset="0" stop-color="#abdbf4"/><stop offset=".229" stop-color="#abdbf4"/><stop offset=".995" stop-color="#e4f5fc"/><stop offset="1" stop-color="#e4f5fc"/></linearGradient><clipPath id="bA" clipPathUnits="userSpaceOnUse"><path d="M8107.14 2567.78h-92.77l-25.07 48.42v91.08h-38.25v-17.22l-164.9 318.43h126.61v-78.94h56.66l137.72-265.94v-95.83"/></clipPath><linearGradient id="d" spreadMethod="pad" gradientTransform="matrix(0 -2545.94 -2545.94 0 6593.38 5252.37)" gradientUnits="userSpaceOnUse" y2="0" x2="1" y1="0" x1="0"><stop offset="0" stop-color="#aecdee"/><stop offset=".229" stop-color="#aecdee"/><stop offset=".995" stop-color="#e7e7f7"/><stop offset="1" stop-color="#e7e7f7"/></linearGradient><clipPath id="by" clipPathUnits="userSpaceOnUse"><path d="M8147.75 2567.78h-40.61v95.83l49.43-95.45c-2.91-.25-5.85-.38-8.82-.38m-178.33 361.77h-56.66v78.94h15.78l40.88-78.94"/></clipPath><clipPath id="bw" clipPathUnits="userSpaceOnUse"><path d="M5492.84 3762.74c.46 3.84.69 7.75.69 11.7 0 55.49-44.98 100.47-100.46 100.47-9.81 0-19.31-1.4-28.28-4.04a78.903 78.903 0 0 1-13.15 20.32l-319.63 617.21h142.39l381.14-735.99c-1.38.03-2.77.05-4.16.05-20.47 0-40.18-3.43-58.54-9.72"/></clipPath><clipPath id="bu" clipPathUnits="userSpaceOnUse"><path d="M6179.36 2567.78h-142.37l-34.59 66.8h142.37l34.59-66.8"/></clipPath><clipPath id="bs" clipPathUnits="userSpaceOnUse"><path d="M6017.3 2702h-49.81l-42.42 81.9v.26h5.79c5.78-13.34 14.76-25.31 27.45-35.41 17.1-13.59 37.1-22.99 57.5-30.89l-4.94 66.3h.35l3.36-45.02 2.72-37.14"/></clipPath><clipPath id="bq" clipPathUnits="userSpaceOnUse"><path d="M6006.19 2851.6h-.36l-4.46 59.9.41-.8 4.41-59.1m-81.12 4.83v77.33H5944c-.06-.23-.13-.47-.19-.7-6.67-24.82-14.73-50.76-18.74-76.63"/></clipPath><clipPath id="bo" clipPathUnits="userSpaceOnUse"><path d="M5954.92 3001.18h-29.85v57.65l29.85-57.65"/></clipPath><clipPath id="bm" clipPathUnits="userSpaceOnUse"><path d="M5925.03 2783.98l-242.33 467.95v274.94l242.33-467.97v-202.72c-.9-5.85-1.59-11.69-2.01-17.52-.99-12.59-.41-24.71 2.01-36.11v-18.57"/></clipPath><clipPath id="bk" clipPathUnits="userSpaceOnUse"><path d="M6144.77 2634.58H6002.4l-34.91 67.42h49.81l.13-1.7.31-3.65h94.89l32.14-62.07m-219.7 149.32l-.04.08v18.57c1.36-6.37 3.29-12.51 5.83-18.39h-5.79v-.26m86.15.26h-.35l-5.04 67.44h.36l5.03-67.44m-86.19 72.02v202.72l.04-.07v-57.65h29.85l4.93-9.52c-5.42-19.31-10.68-38.64-15.85-57.9h-18.93v-77.33c-.01-.09-.02-.17-.04-.25"/></clipPath><clipPath id="bi" clipPathUnits="userSpaceOnUse"><path d="M5682.7 3251.93l-173.22 334.48h142.38l30.84-59.54v-274.94"/></clipPath><clipPath id="bg" clipPathUnits="userSpaceOnUse"><path d="M6542.92 3182.1l-31.18 2.4c-4.09 4.93-8.35 9.71-12.77 14.35h35.27l8.68-16.75"/></clipPath><clipPath id="be" clipPathUnits="userSpaceOnUse"><path d="M6508.83 3247.93h-70c-17.99 11.61-36.96 21.57-55.09 33.1v3.57c.92.84 1.72 1.73 2.37 2.66l1.31 2c4.01 7.35 1.72 13.75-3.68 19.11v.16h93.7l31.39-60.6"/></clipPath><clipPath id="bc" clipPathUnits="userSpaceOnUse"><path d="M6534.24 3198.85h-35.27c-15.67 16.45-33.41 31.14-52.95 44.31-2.38 1.62-4.77 3.21-7.19 4.77h70l25.41-49.08m-150.5 82.18c-.84.54-1.68 1.08-2.52 1.63a18.9 18.9 0 0 1 2.52 1.94v-3.57m-24.94 1.99v25.63c.47-.19.94-.39 1.41-.59 1.1-.3 2.1-.7 3.1-1.2 3.71-1.7 12.6-5.7 17.01-10.3l-2.11-1.4c-2.5-1.7-5.3-3.1-7.2-4.2l-1.09-.6c-3.82-2.42-7.47-4.85-11.12-7.34m24.94 25.35c-5.96 5.92-15.7 10.58-24.94 13.86v41.97h24v127.09l94.64-182.76h-93.7v-.16"/></clipPath><clipPath id="ba" clipPathUnits="userSpaceOnUse"><path d="M6312.92 3599.59h-387.85v82.17h359.09l28.76-55.52v-26.65"/></clipPath><clipPath id="aY" clipPathUnits="userSpaceOnUse"><path d="M6010.8 3150.78h-30.39l-42.56 82.18h124.16c-18.24-16.82-33.33-36.55-42.3-59.1-3.04-7.66-6.01-15.35-8.91-23.08m260.62 64.88c-1.61 0-3.21.2-4.81.7l-.5.2c-13.16 4.34-26.1 10.07-38.71 16.4h68.55c-7.18-7.03-14.75-17.21-24.53-17.3"/></clipPath><clipPath id="aW" clipPathUnits="userSpaceOnUse"><path d="M6312.92 3300.38h-165.93c3.96 2.84 8.4 5.02 12.93 6.68 4.29 1.4 8.79 2.29 13.4 2.49.92.05 1.85.08 2.78.08 2.9 0 5.84-.24 8.71-.77 1.61-1.1 3.21-2.2 4.91-3.2l1.9 1.6.09.1h.11l1.5 1.2v.1l.29 1 .31.9.49 1.6v.4c.2 1.3.1 2.5 0 3.6l-.4 1.2-.2.7-.29.9-.4.9-.41.4-.4.6-.89.3h-.2l-.11.1c-4.75 1.34-9.67 2-14.59 2-7.9 0-15.8-1.71-23.01-5.1-5.69-2.5-11.29-6.2-15.19-11.3-1.44-1.95-2.53-4.16-3.28-6.48h-209.97v82.18h387.85v-82.18"/></clipPath><clipPath id="aU" clipPathUnits="userSpaceOnUse"><path d="M6312.92 3449.99h-387.85v82.18h387.85v-82.18"/></clipPath><clipPath id="aS" clipPathUnits="userSpaceOnUse"><path d="M5925.03 3257.71l-201.46 389.02a180.022 180.022 0 0 1-27.82 53.73l-13.05 25.21v14.74H5925.03v-482.7"/></clipPath><clipPath id="aQ" clipPathUnits="userSpaceOnUse"><path d="M5998.33 3116.18l-17.92 34.6h30.39c-4.3-11.46-8.46-23-12.47-34.6m297.62 116.78h-68.55c-8.56 4.3-16.97 8.88-25.19 13.49-10.7 6.01-21.1 12.41-31.19 19.31-7.81 5.29-18.8 11.2-25.81 19-2.19 2.3-3.9 4.7-5.1 7.3l-.1.1V3292.46l.9 1.9c.91 1.4 2 2.6 3.21 3.7l1.89 1.6c.33.24.65.48.98.72h165.89v-52.2c-5.28-4.51-10.46-9.15-15.57-13.92-.45-.42-.9-.85-1.36-1.3m-233.94 0h-124.16l-12.82 24.75v482.7h-151.51 75.91v142H6160v-142h93.79l30.37-58.65h-359.09v-82.17h387.81v-67.42h-387.81v-82.18h387.81v-67.43h-387.81v-82.18h209.97c-.72-2.21-1.13-4.53-1.23-6.82-.2-3 .1-6 1-8.8l.4-1.01.2-.29.4-.8.9-1.6c-26.03-11.71-52.67-27.78-74.7-48.1"/></clipPath><clipPath id="aO" clipPathUnits="userSpaceOnUse"><path d="M6312.88 3248.18v52.2h.04v82.18h-.04v67.43h.04v82.18h-.04v67.42h.04v26.65l69.88-134.95V3364.2h-24v-41.97c-8.02 2.84-15.64 4.64-20.08 5.33l-1.01-.3c-.6-.4-1.2-1.3-1.5-2.5l-.4-2.4c-.1-1.1-.1-2.3 0-3.4l.3-2.11c.4-1.69 1.31-2.89 2.61-3.19l1.09-.2 2.61-.4c5.6-.92 11.03-2.26 16.38-4.41v-25.63c-1.33-.91-2.65-1.83-3.99-2.76-10.2-6.9-20.1-14.3-29.7-22-4.15-3.29-8.22-6.65-12.23-10.08m-630.18 477.49l-405.36 782.73h578.74l397.71-767.99H6160v142h-310.57v-142H5682.7v-14.74"/></clipPath><clipPath id="aM" clipPathUnits="userSpaceOnUse"><path d="M6155.81 3001.18h-61.48c-.13 10.03-.92 20.05-1.91 30.07-1.73 17.14-4.17 34.8-3.42 52.12h8.49c6.44-22.5 24.76-41.01 39.13-58.71 6.41-7.88 12.63-15.76 19.19-23.48"/></clipPath><clipPath id="aK" clipPathUnits="userSpaceOnUse"><path d="M6157.56 2999.14h-63.22c0 .68-.01 1.36-.01 2.04h61.48c.58-.68 1.16-1.36 1.75-2.04m-60.07 84.23H6089c.3 6.83 1.09 13.61 2.61 20.29.34 1.35.94 1.88 1.55 1.88 1.02 0 2.04-1.49 1.85-3.18-.09-1.8-.29-3.6-.29-5.3l.6-1.9c.33-4.06 1.08-7.98 2.17-11.79"/></clipPath><clipPath id="aI" clipPathUnits="userSpaceOnUse"><path d="M6444.53 3028.59h-37.9c10.72 18.89 16.21 39.72 21.82 60.59h8.48c1.49-7.46 2.03-15.34 2.99-22.52 1.39-10.8 2.79-21.5 4-32.3.2-1.93.4-3.85.61-5.77"/></clipPath><clipPath id="aG" clipPathUnits="userSpaceOnUse"><path d="M6447.55 2999.14h-65.22c7.1 5.83 13.36 12.61 18.58 20.32 2.07 2.98 3.96 6.03 5.72 9.13h37.9c.92-8.48 1.85-16.96 2.58-25.43.13-1.32.28-2.67.44-4.02m-10.62 90.04h-8.48c.65 2.43 1.3 4.85 1.96 7.28v1c.14 1.41 1.23 3.15 2.29 3.15.51 0 1.02-.41 1.41-1.46 1.24-3.16 2.13-6.52 2.82-9.97"/></clipPath><clipPath id="aE" clipPathUnits="userSpaceOnUse"><path d="M6522.32 2829.1l3.04 40.75h.14l-3.18-40.75"/></clipPath><clipPath id="aC" clipPathUnits="userSpaceOnUse"><path d="M6529.33 2918.91h-.32l2.26 30.28c.14-1.6.16-3.21.04-4.83l-1.98-25.45"/></clipPath><clipPath id="aA" clipPathUnits="userSpaceOnUse"><path d="M6525.5 2869.85h-.14l3.65 49.06h.32l-3.83-49.06"/></clipPath><clipPath id="ay" clipPathUnits="userSpaceOnUse"><path d="M6383.77 2589.89h286.012v60.61H6383.77z"/></clipPath><clipPath id="aw" clipPathUnits="userSpaceOnUse"><path d="M6669.78 2699.56h-143.3c16.66 5.22 37 14.89 49.23 31.49 8.66 8.43 15.03 18.23 19.32 29.13h74.75v-60.62"/></clipPath><clipPath id="au" clipPathUnits="userSpaceOnUse"><path d="M6669.78 2809.23h-67.94c-.46 20.17-2.63 40.43-4.64 60.62h72.58v-60.62"/></clipPath><clipPath id="as" clipPathUnits="userSpaceOnUse"><path d="M6669.78 2918.91h-76.99c-1.56 17.44-3.25 34.91-5.37 52.35-.34 2.75-.69 5.51-1.05 8.26h61.45l21.96-42.4v-18.21"/></clipPath><clipPath id="aq" clipPathUnits="userSpaceOnUse"><path d="M6621.82 3028.59h-43.31c-1.18 6.02-2.44 12.02-3.81 18.01l47.12-18.01"/></clipPath><clipPath id="ao" clipPathUnits="userSpaceOnUse"><path d="M6861.04 2567.78h-502.2v128.87h153.61l.16 2.11h11.2c.88.25 1.77.52 2.67.8h143.3v60.62h-74.75c4.57 11.62 6.78 24.5 6.88 38.28.04 3.58.01 7.18-.07 10.77h67.94v60.62h-72.58c-.59 5.91-1.17 11.82-1.68 17.71-.9 10.43-1.79 20.88-2.73 31.35h76.99v18.21l191.26-369.34m-477.27 82.72v-60.61h286.01v60.61h-286.01m264.05 329.02h-61.45c-2.14 16.37-4.68 32.78-7.86 49.07h43.31l.74-.28 25.26-48.79"/></clipPath><clipPath id="am" clipPathUnits="userSpaceOnUse"><path d="M6312.88 2567.78h-30.56l-34.59 66.8h65.15v-66.8"/></clipPath><clipPath id="ak" clipPathUnits="userSpaceOnUse"><path d="M6312.88 2634.58h-65.15l-32.14 62.07h97.29v-62.07"/></clipPath><clipPath id="ai" clipPathUnits="userSpaceOnUse"><path d="M6358.84 2567.78h-45.96v128.87h45.96v-128.87"/></clipPath><clipPath id="ag" clipPathUnits="userSpaceOnUse"><path d="M6669.78 2937.12l-21.96 42.4h21.96v-42.4"/></clipPath><linearGradient id="b" spreadMethod="pad" gradientTransform="matrix(0 -2545.94 -2545.94 0 6593.38 5252.37)" gradientUnits="userSpaceOnUse" y2="0" x2="1" y1="0" x1="0"><stop offset="0" stop-color="#86cbef"/><stop offset=".229" stop-color="#86cbef"/><stop offset=".995" stop-color="#d9f0fb"/><stop offset="1" stop-color="#d9f0fb"/></linearGradient><clipPath id="ae" clipPathUnits="userSpaceOnUse"><path d="M6669.73 3172.33l-126.81 9.77-8.68 16.75h135.49v-26.52"/></clipPath><clipPath id="ac" clipPathUnits="userSpaceOnUse"><path d="M6669.73 3247.93h-160.9l-31.39 60.6h192.29v-60.6"/></clipPath><clipPath id="aa" clipPathUnits="userSpaceOnUse"><path d="M6898.19 2567.78h-37.15l-191.26 369.34v42.4h-21.96l-25.26 48.79 77.48-29.61 198.15 19.19v-269.61c-26.65-69.18-5.27-131.27 0-144.63v-35.87m-130.51 597l-97.95 7.55v26.52h-135.49l-25.41 49.08h160.9v60.6h-192.29l-94.64 182.76v17.64l458.01-144.73h3.54v-1.12l4.3-1.36h-4.3v-92.51h53.84v-73.12l-130.51-31.31"/></clipPath><linearGradient id="a" spreadMethod="pad" gradientTransform="matrix(0 -2545.94 -2545.94 0 6593.38 5252.37)" gradientUnits="userSpaceOnUse" y2="0" x2="1" y1="0" x1="0"><stop offset="0" stop-color="#8bb7e7"/><stop offset=".229" stop-color="#8bb7e7"/><stop offset=".995" stop-color="#dddcf3"/><stop offset="1" stop-color="#dddcf3"/></linearGradient><clipPath id="Y" clipPathUnits="userSpaceOnUse"><path d="M7989.3 2567.78h-38.25v122.28l38.25-73.86v-48.42"/></clipPath><clipPath id="W" clipPathUnits="userSpaceOnUse"><path d="M7752.82 2567.78h-221.51v231.57h221.51v-231.57"/></clipPath><clipPath id="U" clipPathUnits="userSpaceOnUse"><path d="M8014.37 2567.78h-25.07v48.42l25.07-48.42m-63.32 0h-198.23v231.57h-169.24v130.2h56.22c1.92-25.21 4.58-43.97 4.58-43.97h116.33s2.59 9.7 5.28 23.46c1.03-.41 2.16-.6 3.37-.6 12.01 0 32.3 18.84 37.88 34.95 3.47 10.01-2.53 13.92-9.94 13.92-6.17 0-13.33-2.7-16.85-6.87-3.18-3.76-6.72-7.87-9.79-11.42 2.78 25.51 2.09 52.1-11.02 59.48v9.99h26.51l164.9-318.43v-122.28m156.09 95.83l-137.72 265.94h88.61v-130.2h49.11v-135.74"/></clipPath><clipPath id="S" clipPathUnits="userSpaceOnUse"><path d="M5481.51 2567.78H5195.5v49.72h286.01v-49.72"/></clipPath><clipPath id="Q" clipPathUnits="userSpaceOnUse"><path d="M5481.45 2667.22h-285.98v60.59h285.98v-60.59"/></clipPath><clipPath id="O" clipPathUnits="userSpaceOnUse"><path d="M5481.45 2777.54h-285.98v60.59h285.98v-60.59"/></clipPath><clipPath id="M" clipPathUnits="userSpaceOnUse"><path d="M5481.45 2887.85h-285.98v60.6h285.98v-60.6"/></clipPath><clipPath id="K" clipPathUnits="userSpaceOnUse"><path d="M5633.86 2567.78h-152.35v49.72h-283.98v49.72h283.92v60.59h-283.92v49.73h283.92v60.59h-283.92v49.72h283.92v60.6h-283.92v.3h436.33v-380.97"/></clipPath><clipPath id="I" clipPathUnits="userSpaceOnUse"><path d="M7485.78 2567.78h-387.84v25.44l252.96-4.03 1.63 6.15c.07.24 3.96 14.92 9.68 39.24H7485.78v-66.8"/></clipPath><clipPath id="G" clipPathUnits="userSpaceOnUse"><path d="M7485.71 2877.94c-3.62 17-7.92 35.93-12.88 55.82h12.88v-55.82"/></clipPath><clipPath id="E" clipPathUnits="userSpaceOnUse"><path d="M7485.71 3001.18h-31.51c-.75 2.44-1.51 4.88-2.28 7.31h33.79v-7.31"/></clipPath><clipPath id="C" clipPathUnits="userSpaceOnUse"><path d="M7097.94 2567.78h-151.51v27.86l151.51-2.42v-25.44m387.7 66.8h-123.43c3.65 15.49 8.03 34.88 12.65 56.95l109.58.01 1.2 1.86v-58.82m-539.21 188.25v89.34l36.1 40.78c-.64-48.39-8.97-94.05-36.1-130.12m539.21 110.93h-12.81c-5.41 21.72-11.63 44.59-18.63 67.42h31.44v-67.42"/></clipPath><clipPath id="A" clipPathUnits="userSpaceOnUse"><path d="M6312.92 3626.24l-28.76 55.52h28.76v-55.52"/></clipPath><clipPath id="y" clipPathUnits="userSpaceOnUse"><path d="M6282.32 2567.78h-102.96l-34.59 66.8h102.96l34.59-66.8m-245.33 0h-111.96v66.8h77.37l34.59-66.8"/></clipPath><clipPath id="w" clipPathUnits="userSpaceOnUse"><path d="M5967.49 2702h-42.42v81.9l42.42-81.9"/></clipPath><clipPath id="u" clipPathUnits="userSpaceOnUse"><path d="M6001.78 2910.7l-.41.8-1.67 22.26h.36l1.72-23.06"/></clipPath><clipPath id="s" clipPathUnits="userSpaceOnUse"><path d="M5962.54 3001.18h-7.62l-29.85 57.65v24.54h62.28c-8.81-27.22-17-54.68-24.81-82.19"/></clipPath><clipPath id="q" clipPathUnits="userSpaceOnUse"><path d="M5980.41 3150.78h-55.34v82.18h12.78l42.56-82.18"/></clipPath><clipPath id="o" clipPathUnits="userSpaceOnUse"><path d="M5925.03 2567.78H5682.7v684.15l242.33-467.95v-216.2m0 491.12l-242.33 467.97v59.54h49.31c.05 1.77.08 3.54.08 5.34 0 19.17-2.99 37.64-8.52 54.98l201.46-389.02V3058.9m-229.28 641.56c-4.07 5.39-8.42 10.54-13.05 15.44v9.77l13.05-25.21"/></clipPath><clipPath id="m" clipPathUnits="userSpaceOnUse"><path d="M5925.03 2567.78v216.2l.04-.08V2702h42.42l34.91-67.42h-77.37v-66.8m322.7 66.8h-102.96l-32.14 62.07h102.96l32.14-62.07m-247.67 299.18h-.36l-.79 10.6c-.13 1.6-.13 3.19 0 4.77l1.15-15.37m-40.21 57.9l-4.93 9.52h7.62c-.9-3.17-1.8-6.34-2.69-9.52m-34.78 67.17l-.04.07v198.81l12.82-24.75h-12.78v-82.18h55.34l17.92-34.6c-3.78-10.89-7.43-21.83-10.98-32.81h-62.28v-24.54m387.81 622.93h-28.72l-30.37 58.65h59.09v-58.65"/></clipPath><clipPath id="k" clipPathUnits="userSpaceOnUse"><path d="M7531.31 2567.78h-45.53v66.8h-.14v58.82l1.2 1.83s1.34 2.06 3.38 5.6l6.84 12.86c17.89 36.68 18.98 66.02 3.2 83.35l.12 3.02-.12.77c-.66 4.24-5.52 34.74-14.55 77.11v55.82h-.07v67.42h.07v7.31h96.38c2.09-23.71 24.38-41.52 42.55-46.06 2.58-.64 4.77-.93 6.63-.93 3.08 0 5.25.78 6.75 2.01.3-11.85.98-23.46 1.78-33.96h-56.22v-130.2h-52.27v-231.57m-584.88 0h-48.24v35.87c.65-1.64 1.05-2.55 1.1-2.64l2.13-4.66 45.01-.71v-27.86m-1263.73 0h-48.84v380.97h-436.33v-.3h-2.06v-60.6h2.06v-49.72h-2.06v-60.59h2.06v-49.73h-2.06v-60.59h2.06v-49.72h-2.03v-49.72h-156.51c-56.08 0-101.55 45.47-101.55 101.56v1760.55c0 43.36 35.15 78.51 78.51 78.51h16.06l319.63-617.21c-14.47 16.25-35.56 26.49-59.03 26.49-43.67 0-79.05-35.39-79.05-79.05 0-8.55 1.36-16.8 3.9-24.52-1.3.07-2.6.11-3.9.11-34.69 0-62.81-28.11-62.81-62.78 0-16.97 6.74-32.36 17.67-43.65-25.17-8.2-43.36-31.82-43.36-59.71 0-30.61 21.87-56.08 50.83-61.67h333.59l173.22-334.48v-684.15m2473.87.38l-49.43 95.45v135.74h-49.11v130.2h-88.61l-40.88 78.94h20.48c46.39 8.96 81.42 49.76 81.42 98.77 0 44.68-29.13 82.52-69.45 95.65 17.5 18.08 28.3 42.73 28.3 69.9 0 55.54-45.03 100.57-100.6 100.57-2.08 0-4.17-.06-6.25-.19 4.07 12.37 6.25 25.59 6.25 39.29 0 69.93-56.68 126.6-126.61 126.6-34.82 0-66.36-14.06-89.24-36.82L7151.8 4508.4h1019c43.35 0 78.51-35.15 78.51-78.51V2669.34c0-53.12-40.78-96.71-92.74-101.18m-1258.38 180.12v269.61l80.99 7.84c2.1-24.37 3.66-48.91 3.35-72.78l-36.1-40.78v-89.34c-2.5-3.34-5.17-6.6-8.01-9.76-19.23-21.45-32.01-43.46-40.23-64.79m812.78 218.64c-1.74 14.15-4.13 28.51-7.42 41.57h56.09v-9.99c-2.12 1.2-4.57 1.9-7.39 2-.53.02-1.07.03-1.59.03-18.99 0-32.04-12.65-39.69-33.61m-73.07 15.67c-3.19 5.48-9.45 15.87-16.67 25.9h18.01c-.8-8.24-1.21-17.01-1.34-25.9m-739.71 213.5v73.12h-53.84v92.51h4.3l-4.3 1.36v1.12h-3.54l-458.01 144.73v-17.64l-69.88 134.95v55.52h-.04v58.65h-59.09l-397.71 767.99h1153.33l541.58-1045.81c-64.29-21.09-110.72-81.58-110.72-152.92 0-6.35.38-12.59 1.1-18.75-29.41 10.07-60.97 15.56-93.75 15.56-63.5 0-122.23-20.45-169.95-55.11-13.11 1.36-26.71 2.19-40.79 2.47-2.35.04-4.83.08-7.43.08-49.25 0-87.84-10.05-114.74-29.88l-116.52-27.95M5682.7 3526.87l-30.84 59.54h30.84v-59.54m0 189.03c-32.06 33.89-77.09 55.38-127.16 56.51L5174.4 4508.4h102.94l405.36-782.73v-9.77"/></clipPath><linearGradient id="l" spreadMethod="pad" gradientTransform="matrix(0 -2545.94 -2545.94 0 6593.38 5252.37)" gradientUnits="userSpaceOnUse" y2="0" x2="1" y1="0" x1="0"><stop offset="0" stop-color="#91ceef"/><stop offset=".229" stop-color="#91ceef"/><stop offset=".995" stop-color="#fff"/><stop offset="1" stop-color="#fff"/></linearGradient><linearGradient spreadMethod="pad" y2="0" x2="1" y1="0" x1="0" gradientTransform="matrix(0 -2545.94 -2545.94 0 6593.38 5252.37)" gradientUnits="userSpaceOnUse" id="n" xlink:href="#a"/><linearGradient spreadMethod="pad" y2="0" x2="1" y1="0" x1="0" gradientTransform="matrix(0 -2545.94 -2545.94 0 6593.38 5252.37)" gradientUnits="userSpaceOnUse" id="p" xlink:href="#a"/><linearGradient spreadMethod="pad" y2="0" x2="1" y1="0" x1="0" gradientTransform="matrix(0 -2545.94 -2545.94 0 6593.38 5252.37)" gradientUnits="userSpaceOnUse" id="r" xlink:href="#b"/><linearGradient spreadMethod="pad" y2="0" x2="1" y1="0" x1="0" gradientTransform="matrix(0 -2545.94 -2545.94 0 6593.38 5252.37)" gradientUnits="userSpaceOnUse" id="t" xlink:href="#b"/><linearGradient spreadMethod="pad" y2="0" x2="1" y1="0" x1="0" gradientTransform="matrix(0 -2545.94 -2545.94 0 6593.38 5252.37)" gradientUnits="userSpaceOnUse" id="v" xlink:href="#b"/><linearGradient spreadMethod="pad" y2="0" x2="1" y1="0" x1="0" gradientTransform="matrix(0 -2545.94 -2545.94 0 6593.38 5252.37)" gradientUnits="userSpaceOnUse" id="x" xlink:href="#b"/><linearGradient spreadMethod="pad" y2="0" x2="1" y1="0" x1="0" gradientTransform="matrix(0 -2545.94 -2545.94 0 6593.38 5252.37)" gradientUnits="userSpaceOnUse" id="z" xlink:href="#b"/><linearGradient spreadMethod="pad" y2="0" x2="1" y1="0" x1="0" gradientTransform="matrix(0 -2545.94 -2545.94 0 6593.38 5252.37)" gradientUnits="userSpaceOnUse" id="B" xlink:href="#b"/><linearGradient spreadMethod="pad" y2="0" x2="1" y1="0" x1="0" gradientTransform="matrix(0 -2545.94 -2545.94 0 6593.38 5252.37)" gradientUnits="userSpaceOnUse" id="D" xlink:href="#a"/><linearGradient spreadMethod="pad" y2="0" x2="1" y1="0" x1="0" gradientTransform="matrix(0 -2545.94 -2545.94 0 6593.38 5252.37)" gradientUnits="userSpaceOnUse" id="F" xlink:href="#b"/><linearGradient spreadMethod="pad" y2="0" x2="1" y1="0" x1="0" gradientTransform="matrix(0 -2545.94 -2545.94 0 6593.38 5252.37)" gradientUnits="userSpaceOnUse" id="H" xlink:href="#b"/><linearGradient spreadMethod="pad" y2="0" x2="1" y1="0" x1="0" gradientTransform="matrix(0 -2545.94 -2545.94 0 6593.38 5252.37)" gradientUnits="userSpaceOnUse" id="J" xlink:href="#b"/><linearGradient spreadMethod="pad" y2="0" x2="1" y1="0" x1="0" gradientTransform="matrix(0 -2545.94 -2545.94 0 6593.38 5252.37)" gradientUnits="userSpaceOnUse" id="L" xlink:href="#a"/><linearGradient spreadMethod="pad" y2="0" x2="1" y1="0" x1="0" gradientTransform="matrix(0 -2545.94 -2545.94 0 6593.38 5252.37)" gradientUnits="userSpaceOnUse" id="N" xlink:href="#b"/><linearGradient spreadMethod="pad" y2="0" x2="1" y1="0" x1="0" gradientTransform="matrix(0 -2545.94 -2545.94 0 6593.38 5252.37)" gradientUnits="userSpaceOnUse" id="P" xlink:href="#b"/><linearGradient spreadMethod="pad" y2="0" x2="1" y1="0" x1="0" gradientTransform="matrix(0 -2545.94 -2545.94 0 6593.38 5252.37)" gradientUnits="userSpaceOnUse" id="R" xlink:href="#b"/><linearGradient spreadMethod="pad" y2="0" x2="1" y1="0" x1="0" gradientTransform="matrix(0 -2545.94 -2545.94 0 6593.38 5252.37)" gradientUnits="userSpaceOnUse" id="T" xlink:href="#b"/><linearGradient spreadMethod="pad" y2="0" x2="1" y1="0" x1="0" gradientTransform="matrix(0 -2545.94 -2545.94 0 6593.38 5252.37)" gradientUnits="userSpaceOnUse" id="V" xlink:href="#a"/><linearGradient spreadMethod="pad" y2="0" x2="1" y1="0" x1="0" gradientTransform="matrix(0 -2545.94 -2545.94 0 6593.38 5252.37)" gradientUnits="userSpaceOnUse" id="X" xlink:href="#a"/><linearGradient spreadMethod="pad" y2="0" x2="1" y1="0" x1="0" gradientTransform="matrix(0 -2545.94 -2545.94 0 6593.38 5252.37)" gradientUnits="userSpaceOnUse" id="Z" xlink:href="#b"/><linearGradient spreadMethod="pad" y2="0" x2="1" y1="0" x1="0" gradientTransform="matrix(0 -2545.94 -2545.94 0 6593.38 5252.37)" gradientUnits="userSpaceOnUse" id="ab" xlink:href="#a"/><linearGradient spreadMethod="pad" y2="0" x2="1" y1="0" x1="0" gradientTransform="matrix(0 -2545.94 -2545.94 0 6593.38 5252.37)" gradientUnits="userSpaceOnUse" id="ad" xlink:href="#b"/><linearGradient spreadMethod="pad" y2="0" x2="1" y1="0" x1="0" gradientTransform="matrix(0 -2545.94 -2545.94 0 6593.38 5252.37)" gradientUnits="userSpaceOnUse" id="af" xlink:href="#b"/><linearGradient spreadMethod="pad" y2="0" x2="1" y1="0" x1="0" gradientTransform="matrix(0 -2545.94 -2545.94 0 6593.38 5252.37)" gradientUnits="userSpaceOnUse" id="ah" xlink:href="#b"/><linearGradient spreadMethod="pad" y2="0" x2="1" y1="0" x1="0" gradientTransform="matrix(0 -2545.94 -2545.94 0 6593.38 5252.37)" gradientUnits="userSpaceOnUse" id="aj" xlink:href="#c"/><linearGradient spreadMethod="pad" y2="0" x2="1" y1="0" x1="0" gradientTransform="matrix(0 -2545.94 -2545.94 0 6593.38 5252.37)" gradientUnits="userSpaceOnUse" id="al" xlink:href="#d"/><linearGradient spreadMethod="pad" y2="0" x2="1" y1="0" x1="0" gradientTransform="matrix(0 -2545.94 -2545.94 0 6593.38 5252.37)" gradientUnits="userSpaceOnUse" id="an" xlink:href="#e"/><linearGradient spreadMethod="pad" y2="0" x2="1" y1="0" x1="0" gradientTransform="matrix(0 -2545.94 -2545.94 0 6593.38 5252.37)" gradientUnits="userSpaceOnUse" id="ap" xlink:href="#d"/><linearGradient spreadMethod="pad" y2="0" x2="1" y1="0" x1="0" gradientTransform="matrix(0 -2545.94 -2545.94 0 6593.38 5252.37)" gradientUnits="userSpaceOnUse" id="ar" xlink:href="#e"/><linearGradient spreadMethod="pad" y2="0" x2="1" y1="0" x1="0" gradientTransform="matrix(0 -2545.94 -2545.94 0 6593.38 5252.37)" gradientUnits="userSpaceOnUse" id="at" xlink:href="#e"/><linearGradient spreadMethod="pad" y2="0" x2="1" y1="0" x1="0" gradientTransform="matrix(0 -2545.94 -2545.94 0 6593.38 5252.37)" gradientUnits="userSpaceOnUse" id="av" xlink:href="#e"/><linearGradient spreadMethod="pad" y2="0" x2="1" y1="0" x1="0" gradientTransform="matrix(0 -2545.94 -2545.94 0 6593.38 5252.37)" gradientUnits="userSpaceOnUse" id="ax" xlink:href="#e"/><linearGradient spreadMethod="pad" y2="0" x2="1" y1="0" x1="0" gradientTransform="matrix(0 -2545.94 -2545.94 0 6593.38 5252.37)" gradientUnits="userSpaceOnUse" id="az" xlink:href="#e"/><linearGradient spreadMethod="pad" y2="0" x2="1" y1="0" x1="0" gradientTransform="matrix(0 -2545.94 -2545.94 0 6593.38 5252.37)" gradientUnits="userSpaceOnUse" id="aB" xlink:href="#d"/><linearGradient spreadMethod="pad" y2="0" x2="1" y1="0" x1="0" gradientTransform="matrix(0 -2545.94 -2545.94 0 6593.38 5252.37)" gradientUnits="userSpaceOnUse" id="aD" xlink:href="#e"/><linearGradient spreadMethod="pad" y2="0" x2="1" y1="0" x1="0" gradientTransform="matrix(0 -2545.94 -2545.94 0 6593.38 5252.37)" gradientUnits="userSpaceOnUse" id="aF" xlink:href="#e"/><linearGradient spreadMethod="pad" y2="0" x2="1" y1="0" x1="0" gradientTransform="matrix(0 -2545.94 -2545.94 0 6593.38 5252.37)" gradientUnits="userSpaceOnUse" id="aH" xlink:href="#d"/><linearGradient spreadMethod="pad" y2="0" x2="1" y1="0" x1="0" gradientTransform="matrix(0 -2545.94 -2545.94 0 6593.38 5252.37)" gradientUnits="userSpaceOnUse" id="aJ" xlink:href="#e"/><linearGradient spreadMethod="pad" y2="0" x2="1" y1="0" x1="0" gradientTransform="matrix(0 -2545.94 -2545.94 0 6593.38 5252.37)" gradientUnits="userSpaceOnUse" id="aL" xlink:href="#d"/><linearGradient spreadMethod="pad" y2="0" x2="1" y1="0" x1="0" gradientTransform="matrix(0 -2545.94 -2545.94 0 6593.38 5252.37)" gradientUnits="userSpaceOnUse" id="aN" xlink:href="#e"/><linearGradient spreadMethod="pad" y2="0" x2="1" y1="0" x1="0" gradientTransform="matrix(0 -2545.94 -2545.94 0 6593.38 5252.37)" gradientUnits="userSpaceOnUse" id="aP" xlink:href="#c"/><linearGradient spreadMethod="pad" y2="0" x2="1" y1="0" x1="0" gradientTransform="matrix(0 -2545.94 -2545.94 0 6593.38 5252.37)" gradientUnits="userSpaceOnUse" id="aR" xlink:href="#d"/><linearGradient spreadMethod="pad" y2="0" x2="1" y1="0" x1="0" gradientTransform="matrix(0 -2545.94 -2545.94 0 6593.38 5252.37)" gradientUnits="userSpaceOnUse" id="aT" xlink:href="#d"/><linearGradient spreadMethod="pad" y2="0" x2="1" y1="0" x1="0" gradientTransform="matrix(0 -2545.94 -2545.94 0 6593.38 5252.37)" gradientUnits="userSpaceOnUse" id="aV" xlink:href="#e"/><linearGradient spreadMethod="pad" y2="0" x2="1" y1="0" x1="0" gradientTransform="matrix(0 -2545.94 -2545.94 0 6593.38 5252.37)" gradientUnits="userSpaceOnUse" id="aX" xlink:href="#e"/><linearGradient spreadMethod="pad" y2="0" x2="1" y1="0" x1="0" gradientTransform="matrix(0 -2545.94 -2545.94 0 6593.38 5252.37)" gradientUnits="userSpaceOnUse" id="aZ" xlink:href="#e"/><linearGradient spreadMethod="pad" y2="0" x2="1" y1="0" x1="0" gradientTransform="matrix(0 -2545.94 -2545.94 0 6593.38 5252.37)" gradientUnits="userSpaceOnUse" id="bb" xlink:href="#e"/><linearGradient spreadMethod="pad" y2="0" x2="1" y1="0" x1="0" gradientTransform="matrix(0 -2545.94 -2545.94 0 6593.38 5252.37)" gradientUnits="userSpaceOnUse" id="bd" xlink:href="#d"/><linearGradient spreadMethod="pad" y2="0" x2="1" y1="0" x1="0" gradientTransform="matrix(0 -2545.94 -2545.94 0 6593.38 5252.37)" gradientUnits="userSpaceOnUse" id="bf" xlink:href="#e"/><linearGradient spreadMethod="pad" y2="0" x2="1" y1="0" x1="0" gradientTransform="matrix(0 -2545.94 -2545.94 0 6593.38 5252.37)" gradientUnits="userSpaceOnUse" id="bh" xlink:href="#e"/><linearGradient spreadMethod="pad" y2="0" x2="1" y1="0" x1="0" gradientTransform="matrix(0 -2545.94 -2545.94 0 6593.38 5252.37)" gradientUnits="userSpaceOnUse" id="bj" xlink:href="#c"/><linearGradient spreadMethod="pad" y2="0" x2="1" y1="0" x1="0" gradientTransform="matrix(0 -2545.94 -2545.94 0 6593.38 5252.37)" gradientUnits="userSpaceOnUse" id="bl" xlink:href="#d"/><linearGradient spreadMethod="pad" y2="0" x2="1" y1="0" x1="0" gradientTransform="matrix(0 -2545.94 -2545.94 0 6593.38 5252.37)" gradientUnits="userSpaceOnUse" id="bn" xlink:href="#d"/><linearGradient spreadMethod="pad" y2="0" x2="1" y1="0" x1="0" gradientTransform="matrix(0 -2545.94 -2545.94 0 6593.38 5252.37)" gradientUnits="userSpaceOnUse" id="bp" xlink:href="#e"/><linearGradient spreadMethod="pad" y2="0" x2="1" y1="0" x1="0" gradientTransform="matrix(0 -2545.94 -2545.94 0 6593.38 5252.37)" gradientUnits="userSpaceOnUse" id="br" xlink:href="#e"/><linearGradient spreadMethod="pad" y2="0" x2="1" y1="0" x1="0" gradientTransform="matrix(0 -2545.94 -2545.94 0 6593.38 5252.37)" gradientUnits="userSpaceOnUse" id="bt" xlink:href="#e"/><linearGradient spreadMethod="pad" y2="0" x2="1" y1="0" x1="0" gradientTransform="matrix(0 -2545.94 -2545.94 0 6593.38 5252.37)" gradientUnits="userSpaceOnUse" id="bv" xlink:href="#e"/><linearGradient spreadMethod="pad" y2="0" x2="1" y1="0" x1="0" gradientTransform="matrix(0 -2545.94 -2545.94 0 6593.38 5252.37)" gradientUnits="userSpaceOnUse" id="bx" xlink:href="#c"/><linearGradient spreadMethod="pad" y2="0" x2="1" y1="0" x1="0" gradientTransform="matrix(0 -2545.94 -2545.94 0 6593.38 5252.37)" gradientUnits="userSpaceOnUse" id="bz" xlink:href="#c"/><linearGradient spreadMethod="pad" y2="0" x2="1" y1="0" x1="0" gradientTransform="matrix(0 -2545.94 -2545.94 0 6593.38 5252.37)" gradientUnits="userSpaceOnUse" id="bB" xlink:href="#d"/><linearGradient spreadMethod="pad" y2="0" x2="1" y1="0" x1="0" gradientTransform="matrix(0 -2545.94 -2545.94 0 6593.38 5252.37)" gradientUnits="userSpaceOnUse" id="bD" xlink:href="#e"/><linearGradient spreadMethod="pad" y2="0" x2="1" y1="0" x1="0" gradientTransform="matrix(0 -2545.94 -2545.94 0 6593.38 5252.37)" gradientUnits="userSpaceOnUse" id="bF" xlink:href="#c"/><linearGradient spreadMethod="pad" y2="0" x2="1" y1="0" x1="0" gradientTransform="matrix(0 -2545.94 -2545.94 0 6593.38 5252.37)" gradientUnits="userSpaceOnUse" id="bH" xlink:href="#f"/><linearGradient spreadMethod="pad" y2="0" x2="1" y1="0" x1="0" gradientTransform="matrix(0 -2545.94 -2545.94 0 6593.38 5252.37)" gradientUnits="userSpaceOnUse" id="bJ" xlink:href="#g"/><linearGradient spreadMethod="pad" y2="0" x2="1" y1="0" x1="0" gradientTransform="matrix(0 -2545.94 -2545.94 0 6593.38 5252.37)" gradientUnits="userSpaceOnUse" id="bL" xlink:href="#f"/><linearGradient spreadMethod="pad" y2="0" x2="1" y1="0" x1="0" gradientTransform="matrix(0 -2545.94 -2545.94 0 6593.38 5252.37)" gradientUnits="userSpaceOnUse" id="bN" xlink:href="#h"/><linearGradient spreadMethod="pad" y2="0" x2="1" y1="0" x1="0" gradientTransform="matrix(0 -2545.94 -2545.94 0 6593.38 5252.37)" gradientUnits="userSpaceOnUse" id="bP" xlink:href="#i"/><linearGradient spreadMethod="pad" y2="0" x2="1" y1="0" x1="0" gradientTransform="matrix(0 -2545.94 -2545.94 0 6593.38 5252.37)" gradientUnits="userSpaceOnUse" id="bR" xlink:href="#f"/><linearGradient spreadMethod="pad" y2="0" x2="1" y1="0" x1="0" gradientTransform="matrix(0 -2545.94 -2545.94 0 6593.38 5252.37)" gradientUnits="userSpaceOnUse" id="bT" xlink:href="#g"/><linearGradient spreadMethod="pad" y2="0" x2="1" y1="0" x1="0" gradientTransform="matrix(0 -2545.94 -2545.94 0 6593.38 5252.37)" gradientUnits="userSpaceOnUse" id="bV" xlink:href="#f"/><linearGradient spreadMethod="pad" y2="0" x2="1" y1="0" x1="0" gradientTransform="matrix(0 -2545.94 -2545.94 0 6593.38 5252.37)" gradientUnits="userSpaceOnUse" id="bZ" xlink:href="#g"/><linearGradient spreadMethod="pad" y2="0" x2="1" y1="0" x1="0" gradientTransform="matrix(0 -2545.94 -2545.94 0 6593.38 5252.37)" gradientUnits="userSpaceOnUse" id="cb" xlink:href="#i"/><linearGradient spreadMethod="pad" y2="0" x2="1" y1="0" x1="0" gradientTransform="matrix(0 -2545.94 -2545.94 0 6593.38 5252.37)" gradientUnits="userSpaceOnUse" id="cd" xlink:href="#h"/><path d="M-84.525-27.457h326.05V78.457h-326.05z" id="j"/></defs><g transform="translate(60.721 77.261)"><rect width="108.479" height="82.021" x="-60.721" y="-77.261" rx=".519" ry=".563" fill="none" paint-order="fill markers stroke"/><path d="M13.301.868c-1.638 0-3.302-.03-4.99-.06a300.588 300.588 0 0 0-4.865-.06c7.138-5.884 14.066-13.218 23.962-17.535 7.032-3.067 12.215-10.858 13.52-20.104C44.503-26.103 44.27-15.4 38.427-8.367 31.618-.172 22.929.868 13.301.868M-40.126-.09c-4.99-2.403-9.019-5.947-11.949-10.365-7.033-10.603-6.028-31.723 9.626-48.287v.656c-3.303 6.413-5.1 13.836-5.75 22.154-.971 12.435.326 26.57 8.073 35.842" opacity=".423" fill="#f2f6fc"/><path d="M-23.476 3.437c-6.334 0-11.923-1.252-16.65-3.527-7.747-9.273-9.044-23.407-8.072-35.842.65-8.318 2.446-15.741 5.749-22.154v28.038c0 1.196.969 2.165 2.164 2.165H28.26c1.196 0 2.165-.97 2.165-2.165v-26.028c4.662 5.868 8.305 12.544 10.505 19.185-1.306 9.246-6.49 17.037-13.521 20.104C17.512-12.47 10.584-5.136 3.446.748h-.262c-4.75 0-9.634.227-14.56 1.306-4.281.938-8.323 1.383-12.1 1.383M11.626-71.53h-37.825c4.994-2.6 10.894-4.41 17.949-4.41 4.458 0 9.376.723 14.82 2.425a39.058 39.058 0 0 1 5.056 1.985" opacity=".725" fill="#eef2fb"/><g clip-path="url(#k)" transform="matrix(.02131 0 0 -.02131 -146.546 25.706)"><path d="M7531.31 2567.78h-45.53v66.8h-.14v58.82l1.2 1.83s1.34 2.06 3.38 5.6l6.84 12.86c17.89 36.68 18.98 66.02 3.2 83.35l.12 3.02-.12.77c-.66 4.24-5.52 34.74-14.55 77.11v55.82h-.07v67.42h.07v7.31h96.38c2.09-23.71 24.38-41.52 42.55-46.06 2.58-.64 4.77-.93 6.63-.93 3.08 0 5.25.78 6.75 2.01.3-11.85.98-23.46 1.78-33.96h-56.22v-130.2h-52.27v-231.57m-584.88 0h-48.24v35.87c.65-1.64 1.05-2.55 1.1-2.64l2.13-4.66 45.01-.71v-27.86m-1263.73 0h-48.84v380.97h-436.33v-.3h-2.06v-60.6h2.06v-49.72h-2.06v-60.59h2.06v-49.73h-2.06v-60.59h2.06v-49.72h-2.03v-49.72h-156.51c-56.08 0-101.55 45.47-101.55 101.56v1760.55c0 43.36 35.15 78.51 78.51 78.51h16.06l319.63-617.21c-14.47 16.25-35.56 26.49-59.03 26.49-43.67 0-79.05-35.39-79.05-79.05 0-8.55 1.36-16.8 3.9-24.52-1.3.07-2.6.11-3.9.11-34.69 0-62.81-28.11-62.81-62.78 0-16.97 6.74-32.36 17.67-43.65-25.17-8.2-43.36-31.82-43.36-59.71 0-30.61 21.87-56.08 50.83-61.67h333.59l173.22-334.48v-684.15m2473.87.38l-49.43 95.45v135.74h-49.11v130.2h-88.61l-40.88 78.94h20.48c46.39 8.96 81.42 49.76 81.42 98.77 0 44.68-29.13 82.52-69.45 95.65 17.5 18.08 28.3 42.73 28.3 69.9 0 55.54-45.03 100.57-100.6 100.57-2.08 0-4.17-.06-6.25-.19 4.07 12.37 6.25 25.59 6.25 39.29 0 69.93-56.68 126.6-126.61 126.6-34.82 0-66.36-14.06-89.24-36.82L7151.8 4508.4h1019c43.35 0 78.51-35.15 78.51-78.51V2669.34c0-53.12-40.78-96.71-92.74-101.18m-1258.38 180.12v269.61l80.99 7.84c2.1-24.37 3.66-48.91 3.35-72.78l-36.1-40.78v-89.34c-2.5-3.34-5.17-6.6-8.01-9.76-19.23-21.45-32.01-43.46-40.23-64.79m812.78 218.64c-1.74 14.15-4.13 28.51-7.42 41.57h56.09v-9.99c-2.12 1.2-4.57 1.9-7.39 2-.53.02-1.07.03-1.59.03-18.99 0-32.04-12.65-39.69-33.61m-73.07 15.67c-3.19 5.48-9.45 15.87-16.67 25.9h18.01c-.8-8.24-1.21-17.01-1.34-25.9m-739.71 213.5v73.12h-53.84v92.51h4.3l-4.3 1.36v1.12h-3.54l-458.01 144.73v-17.64l-69.88 134.95v55.52h-.04v58.65h-59.09l-397.71 767.99h1153.33l541.58-1045.81c-64.29-21.09-110.72-81.58-110.72-152.92 0-6.35.38-12.59 1.1-18.75-29.41 10.07-60.97 15.56-93.75 15.56-63.5 0-122.23-20.45-169.95-55.11-13.11 1.36-26.71 2.19-40.79 2.47-2.35.04-4.83.08-7.43.08-49.25 0-87.84-10.05-114.74-29.88l-116.52-27.95M5682.7 3526.87l-30.84 59.54h30.84v-59.54m0 189.03c-32.06 33.89-77.09 55.38-127.16 56.51L5174.4 4508.4h102.94l405.36-782.73v-9.77" fill="url(#l)"/></g><g clip-path="url(#m)" transform="matrix(.02131 0 0 -.02131 -146.546 25.706)"><path d="M5925.03 2567.78v216.2l.04-.08V2702h42.42l34.91-67.42h-77.37v-66.8m322.7 66.8h-102.96l-32.14 62.07h102.96l32.14-62.07m-247.67 299.18h-.36l-.79 10.6c-.13 1.6-.13 3.19 0 4.77l1.15-15.37m-40.21 57.9l-4.93 9.52h7.62c-.9-3.17-1.8-6.34-2.69-9.52m-34.78 67.17l-.04.07v198.81l12.82-24.75h-12.78v-82.18h55.34l17.92-34.6c-3.78-10.89-7.43-21.83-10.98-32.81h-62.28v-24.54m387.81 622.93h-28.72l-30.37 58.65h59.09v-58.65" fill="url(#n)"/></g><g clip-path="url(#o)" transform="matrix(.02131 0 0 -.02131 -146.546 25.706)"><path d="M5925.03 2567.78H5682.7v684.15l242.33-467.95v-216.2m0 491.12l-242.33 467.97v59.54h49.31c.05 1.77.08 3.54.08 5.34 0 19.17-2.99 37.64-8.52 54.98l201.46-389.02V3058.9m-229.28 641.56c-4.07 5.39-8.42 10.54-13.05 15.44v9.77l13.05-25.21" fill="url(#p)"/></g><g clip-path="url(#q)" transform="matrix(.02131 0 0 -.02131 -146.546 25.706)"><path d="M5980.41 3150.78h-55.34v82.18h12.78l42.56-82.18" fill="url(#r)"/></g><g clip-path="url(#s)" transform="matrix(.02131 0 0 -.02131 -146.546 25.706)"><path d="M5962.54 3001.18h-7.62l-29.85 57.65v24.54h62.28c-8.81-27.22-17-54.68-24.81-82.19" fill="url(#t)"/></g><g clip-path="url(#u)" transform="matrix(.02131 0 0 -.02131 -146.546 25.706)"><path d="M6001.78 2910.7l-.41.8-1.67 22.26h.36l1.72-23.06" fill="url(#v)"/></g><g clip-path="url(#w)" transform="matrix(.02131 0 0 -.02131 -146.546 25.706)"><path d="M5967.49 2702h-42.42v81.9l42.42-81.9" fill="url(#x)"/></g><g clip-path="url(#y)" transform="matrix(.02131 0 0 -.02131 -146.546 25.706)"><path d="M6282.32 2567.78h-102.96l-34.59 66.8h102.96l34.59-66.8m-245.33 0h-111.96v66.8h77.37l34.59-66.8" fill="url(#z)"/></g><g clip-path="url(#A)" transform="matrix(.02131 0 0 -.02131 -146.546 25.706)"><path d="M6312.92 3626.24l-28.76 55.52h28.76v-55.52" fill="url(#B)"/></g><g clip-path="url(#C)" transform="matrix(.02131 0 0 -.02131 -146.546 25.706)"><path d="M7097.94 2567.78h-151.51v27.86l151.51-2.42v-25.44m387.7 66.8h-123.43c3.65 15.49 8.03 34.88 12.65 56.95l109.58.01 1.2 1.86v-58.82m-539.21 188.25v89.34l36.1 40.78c-.64-48.39-8.97-94.05-36.1-130.12m539.21 110.93h-12.81c-5.41 21.72-11.63 44.59-18.63 67.42h31.44v-67.42" fill="url(#D)"/></g><g clip-path="url(#E)" transform="matrix(.02131 0 0 -.02131 -146.546 25.706)"><path d="M7485.71 3001.18h-31.51c-.75 2.44-1.51 4.88-2.28 7.31h33.79v-7.31" fill="url(#F)"/></g><g clip-path="url(#G)" transform="matrix(.02131 0 0 -.02131 -146.546 25.706)"><path d="M7485.71 2877.94c-3.62 17-7.92 35.93-12.88 55.82h12.88v-55.82" fill="url(#H)"/></g><g clip-path="url(#I)" transform="matrix(.02131 0 0 -.02131 -146.546 25.706)"><path d="M7485.78 2567.78h-387.84v25.44l252.96-4.03 1.63 6.15c.07.24 3.96 14.92 9.68 39.24H7485.78v-66.8" fill="url(#J)"/></g><g clip-path="url(#K)" transform="matrix(.02131 0 0 -.02131 -146.546 25.706)"><path d="M5633.86 2567.78h-152.35v49.72h-283.98v49.72h283.92v60.59h-283.92v49.73h283.92v60.59h-283.92v49.72h283.92v60.6h-283.92v.3h436.33v-380.97" fill="url(#L)"/></g><g clip-path="url(#M)" transform="matrix(.02131 0 0 -.02131 -146.546 25.706)"><path d="M5481.45 2887.85h-285.98v60.6h285.98v-60.6" fill="url(#N)"/></g><g clip-path="url(#O)" transform="matrix(.02131 0 0 -.02131 -146.546 25.706)"><path d="M5481.45 2777.54h-285.98v60.59h285.98v-60.59" fill="url(#P)"/></g><g clip-path="url(#Q)" transform="matrix(.02131 0 0 -.02131 -146.546 25.706)"><path d="M5481.45 2667.22h-285.98v60.59h285.98v-60.59" fill="url(#R)"/></g><g clip-path="url(#S)" transform="matrix(.02131 0 0 -.02131 -146.546 25.706)"><path d="M5481.51 2567.78H5195.5v49.72h286.01v-49.72" fill="url(#T)"/></g><g clip-path="url(#U)" transform="matrix(.02131 0 0 -.02131 -146.546 25.706)"><path d="M8014.37 2567.78h-25.07v48.42l25.07-48.42m-63.32 0h-198.23v231.57h-169.24v130.2h56.22c1.92-25.21 4.58-43.97 4.58-43.97h116.33s2.59 9.7 5.28 23.46c1.03-.41 2.16-.6 3.37-.6 12.01 0 32.3 18.84 37.88 34.95 3.47 10.01-2.53 13.92-9.94 13.92-6.17 0-13.33-2.7-16.85-6.87-3.18-3.76-6.72-7.87-9.79-11.42 2.78 25.51 2.09 52.1-11.02 59.48v9.99h26.51l164.9-318.43v-122.28m156.09 95.83l-137.72 265.94h88.61v-130.2h49.11v-135.74" fill="url(#V)"/></g><g clip-path="url(#W)" transform="matrix(.02131 0 0 -.02131 -146.546 25.706)"><path d="M7752.82 2567.78h-221.51v231.57h221.51v-231.57" fill="url(#X)"/></g><g clip-path="url(#Y)" transform="matrix(.02131 0 0 -.02131 -146.546 25.706)"><path d="M7989.3 2567.78h-38.25v122.28l38.25-73.86v-48.42" fill="url(#Z)"/></g><g clip-path="url(#aa)" transform="matrix(.02131 0 0 -.02131 -146.546 25.706)"><path d="M6898.19 2567.78h-37.15l-191.26 369.34v42.4h-21.96l-25.26 48.79 77.48-29.61 198.15 19.19v-269.61c-26.65-69.18-5.27-131.27 0-144.63v-35.87m-130.51 597l-97.95 7.55v26.52h-135.49l-25.41 49.08h160.9v60.6h-192.29l-94.64 182.76v17.64l458.01-144.73h3.54v-1.12l4.3-1.36h-4.3v-92.51h53.84v-73.12l-130.51-31.31" fill="url(#ab)"/></g><g clip-path="url(#ac)" transform="matrix(.02131 0 0 -.02131 -146.546 25.706)"><path d="M6669.73 3247.93h-160.9l-31.39 60.6h192.29v-60.6" fill="url(#ad)"/></g><g clip-path="url(#ae)" transform="matrix(.02131 0 0 -.02131 -146.546 25.706)"><path d="M6669.73 3172.33l-126.81 9.77-8.68 16.75h135.49v-26.52" fill="url(#af)"/></g><g clip-path="url(#ag)" transform="matrix(.02131 0 0 -.02131 -146.546 25.706)"><path d="M6669.78 2937.12l-21.96 42.4h21.96v-42.4" fill="url(#ah)"/></g><g clip-path="url(#ai)" transform="matrix(.02131 0 0 -.02131 -146.546 25.706)"><path d="M6358.84 2567.78h-45.96v128.87h45.96v-128.87" fill="url(#aj)"/></g><g clip-path="url(#ak)" transform="matrix(.02131 0 0 -.02131 -146.546 25.706)"><path d="M6312.88 2634.58h-65.15l-32.14 62.07h97.29v-62.07" fill="url(#al)"/></g><g clip-path="url(#am)" transform="matrix(.02131 0 0 -.02131 -146.546 25.706)"><path d="M6312.88 2567.78h-30.56l-34.59 66.8h65.15v-66.8" fill="url(#an)"/></g><g clip-path="url(#ao)" transform="matrix(.02131 0 0 -.02131 -146.546 25.706)"><path d="M6861.04 2567.78h-502.2v128.87h153.61l.16 2.11h11.2c.88.25 1.77.52 2.67.8h143.3v60.62h-74.75c4.57 11.62 6.78 24.5 6.88 38.28.04 3.58.01 7.18-.07 10.77h67.94v60.62h-72.58c-.59 5.91-1.17 11.82-1.68 17.71-.9 10.43-1.79 20.88-2.73 31.35h76.99v18.21l191.26-369.34m-477.27 82.72v-60.61h286.01v60.61h-286.01m264.05 329.02h-61.45c-2.14 16.37-4.68 32.78-7.86 49.07h43.31l.74-.28 25.26-48.79" fill="url(#ap)"/></g><g clip-path="url(#aq)" transform="matrix(.02131 0 0 -.02131 -146.546 25.706)"><path d="M6621.82 3028.59h-43.31c-1.18 6.02-2.44 12.02-3.81 18.01l47.12-18.01" fill="url(#ar)"/></g><g clip-path="url(#as)" transform="matrix(.02131 0 0 -.02131 -146.546 25.706)"><path d="M6669.78 2918.91h-76.99c-1.56 17.44-3.25 34.91-5.37 52.35-.34 2.75-.69 5.51-1.05 8.26h61.45l21.96-42.4v-18.21" fill="url(#at)"/></g><g clip-path="url(#au)" transform="matrix(.02131 0 0 -.02131 -146.546 25.706)"><path d="M6669.78 2809.23h-67.94c-.46 20.17-2.63 40.43-4.64 60.62h72.58v-60.62" fill="url(#av)"/></g><g clip-path="url(#aw)" transform="matrix(.02131 0 0 -.02131 -146.546 25.706)"><path d="M6669.78 2699.56h-143.3c16.66 5.22 37 14.89 49.23 31.49 8.66 8.43 15.03 18.23 19.32 29.13h74.75v-60.62" fill="url(#ax)"/></g><g clip-path="url(#ay)" transform="matrix(.02131 0 0 -.02131 -146.546 25.706)"><path d="M6383.77 2589.89h286.012v60.61H6383.77z" fill="url(#az)"/></g><g clip-path="url(#aA)" transform="matrix(.02131 0 0 -.02131 -146.546 25.706)"><path d="M6525.5 2869.85h-.14l3.65 49.06h.32l-3.83-49.06" fill="url(#aB)"/></g><g clip-path="url(#aC)" transform="matrix(.02131 0 0 -.02131 -146.546 25.706)"><path d="M6529.33 2918.91h-.32l2.26 30.28c.14-1.6.16-3.21.04-4.83l-1.98-25.45" fill="url(#aD)"/></g><g clip-path="url(#aE)" transform="matrix(.02131 0 0 -.02131 -146.546 25.706)"><path d="M6522.32 2829.1l3.04 40.75h.14l-3.18-40.75" fill="url(#aF)"/></g><g clip-path="url(#aG)" transform="matrix(.02131 0 0 -.02131 -146.546 25.706)"><path d="M6447.55 2999.14h-65.22c7.1 5.83 13.36 12.61 18.58 20.32 2.07 2.98 3.96 6.03 5.72 9.13h37.9c.92-8.48 1.85-16.96 2.58-25.43.13-1.32.28-2.67.44-4.02m-10.62 90.04h-8.48c.65 2.43 1.3 4.85 1.96 7.28v1c.14 1.41 1.23 3.15 2.29 3.15.51 0 1.02-.41 1.41-1.46 1.24-3.16 2.13-6.52 2.82-9.97" fill="url(#aH)"/></g><g clip-path="url(#aI)" transform="matrix(.02131 0 0 -.02131 -146.546 25.706)"><path d="M6444.53 3028.59h-37.9c10.72 18.89 16.21 39.72 21.82 60.59h8.48c1.49-7.46 2.03-15.34 2.99-22.52 1.39-10.8 2.79-21.5 4-32.3.2-1.93.4-3.85.61-5.77" fill="url(#aJ)"/></g><g clip-path="url(#aK)" transform="matrix(.02131 0 0 -.02131 -146.546 25.706)"><path d="M6157.56 2999.14h-63.22c0 .68-.01 1.36-.01 2.04h61.48c.58-.68 1.16-1.36 1.75-2.04m-60.07 84.23H6089c.3 6.83 1.09 13.61 2.61 20.29.34 1.35.94 1.88 1.55 1.88 1.02 0 2.04-1.49 1.85-3.18-.09-1.8-.29-3.6-.29-5.3l.6-1.9c.33-4.06 1.08-7.98 2.17-11.79" fill="url(#aL)"/></g><g clip-path="url(#aM)" transform="matrix(.02131 0 0 -.02131 -146.546 25.706)"><path d="M6155.81 3001.18h-61.48c-.13 10.03-.92 20.05-1.91 30.07-1.73 17.14-4.17 34.8-3.42 52.12h8.49c6.44-22.5 24.76-41.01 39.13-58.71 6.41-7.88 12.63-15.76 19.19-23.48" fill="url(#aN)"/></g><g clip-path="url(#aO)" transform="matrix(.02131 0 0 -.02131 -146.546 25.706)"><path d="M6312.88 3248.18v52.2h.04v82.18h-.04v67.43h.04v82.18h-.04v67.42h.04v26.65l69.88-134.95V3364.2h-24v-41.97c-8.02 2.84-15.64 4.64-20.08 5.33l-1.01-.3c-.6-.4-1.2-1.3-1.5-2.5l-.4-2.4c-.1-1.1-.1-2.3 0-3.4l.3-2.11c.4-1.69 1.31-2.89 2.61-3.19l1.09-.2 2.61-.4c5.6-.92 11.03-2.26 16.38-4.41v-25.63c-1.33-.91-2.65-1.83-3.99-2.76-10.2-6.9-20.1-14.3-29.7-22-4.15-3.29-8.22-6.65-12.23-10.08m-630.18 477.49l-405.36 782.73h578.74l397.71-767.99H6160v142h-310.57v-142H5682.7v-14.74" fill="url(#aP)"/></g><g clip-path="url(#aQ)" transform="matrix(.02131 0 0 -.02131 -146.546 25.706)"><path d="M5998.33 3116.18l-17.92 34.6h30.39c-4.3-11.46-8.46-23-12.47-34.6m297.62 116.78h-68.55c-8.56 4.3-16.97 8.88-25.19 13.49-10.7 6.01-21.1 12.41-31.19 19.31-7.81 5.29-18.8 11.2-25.81 19-2.19 2.3-3.9 4.7-5.1 7.3l-.1.1V3292.46l.9 1.9c.91 1.4 2 2.6 3.21 3.7l1.89 1.6c.33.24.65.48.98.72h165.89v-52.2c-5.28-4.51-10.46-9.15-15.57-13.92-.45-.42-.9-.85-1.36-1.3m-233.94 0h-124.16l-12.82 24.75v482.7h-151.51 75.91v142H6160v-142h93.79l30.37-58.65h-359.09v-82.17h387.81v-67.42h-387.81v-82.18h387.81v-67.43h-387.81v-82.18h209.97c-.72-2.21-1.13-4.53-1.23-6.82-.2-3 .1-6 1-8.8l.4-1.01.2-.29.4-.8.9-1.6c-26.03-11.71-52.67-27.78-74.7-48.1" fill="url(#aR)"/></g><g clip-path="url(#aS)" transform="matrix(.02131 0 0 -.02131 -146.546 25.706)"><path d="M5925.03 3257.71l-201.46 389.02a180.022 180.022 0 0 1-27.82 53.73l-13.05 25.21v14.74H5925.03v-482.7" fill="url(#aT)"/></g><g clip-path="url(#aU)" transform="matrix(.02131 0 0 -.02131 -146.546 25.706)"><path d="M6312.92 3449.99h-387.85v82.18h387.85v-82.18" fill="url(#aV)"/></g><g clip-path="url(#aW)" transform="matrix(.02131 0 0 -.02131 -146.546 25.706)"><path d="M6312.92 3300.38h-165.93c3.96 2.84 8.4 5.02 12.93 6.68 4.29 1.4 8.79 2.29 13.4 2.49.92.05 1.85.08 2.78.08 2.9 0 5.84-.24 8.71-.77 1.61-1.1 3.21-2.2 4.91-3.2l1.9 1.6.09.1h.11l1.5 1.2v.1l.29 1 .31.9.49 1.6v.4c.2 1.3.1 2.5 0 3.6l-.4 1.2-.2.7-.29.9-.4.9-.41.4-.4.6-.89.3h-.2l-.11.1c-4.75 1.34-9.67 2-14.59 2-7.9 0-15.8-1.71-23.01-5.1-5.69-2.5-11.29-6.2-15.19-11.3-1.44-1.95-2.53-4.16-3.28-6.48h-209.97v82.18h387.85v-82.18" fill="url(#aX)"/></g><g clip-path="url(#aY)" transform="matrix(.02131 0 0 -.02131 -146.546 25.706)"><path d="M6010.8 3150.78h-30.39l-42.56 82.18h124.16c-18.24-16.82-33.33-36.55-42.3-59.1-3.04-7.66-6.01-15.35-8.91-23.08m260.62 64.88c-1.61 0-3.21.2-4.81.7l-.5.2c-13.16 4.34-26.1 10.07-38.71 16.4h68.55c-7.18-7.03-14.75-17.21-24.53-17.3" fill="url(#aZ)"/></g><g clip-path="url(#ba)" transform="matrix(.02131 0 0 -.02131 -146.546 25.706)"><path d="M6312.92 3599.59h-387.85v82.17h359.09l28.76-55.52v-26.65" fill="url(#bb)"/></g><g clip-path="url(#bc)" transform="matrix(.02131 0 0 -.02131 -146.546 25.706)"><path d="M6534.24 3198.85h-35.27c-15.67 16.45-33.41 31.14-52.95 44.31-2.38 1.62-4.77 3.21-7.19 4.77h70l25.41-49.08m-150.5 82.18c-.84.54-1.68 1.08-2.52 1.63a18.9 18.9 0 0 1 2.52 1.94v-3.57m-24.94 1.99v25.63c.47-.19.94-.39 1.41-.59 1.1-.3 2.1-.7 3.1-1.2 3.71-1.7 12.6-5.7 17.01-10.3l-2.11-1.4c-2.5-1.7-5.3-3.1-7.2-4.2l-1.09-.6c-3.82-2.42-7.47-4.85-11.12-7.34m24.94 25.35c-5.96 5.92-15.7 10.58-24.94 13.86v41.97h24v127.09l94.64-182.76h-93.7v-.16" fill="url(#bd)"/></g><g clip-path="url(#be)" transform="matrix(.02131 0 0 -.02131 -146.546 25.706)"><path d="M6508.83 3247.93h-70c-17.99 11.61-36.96 21.57-55.09 33.1v3.57c.92.84 1.72 1.73 2.37 2.66l1.31 2c4.01 7.35 1.72 13.75-3.68 19.11v.16h93.7l31.39-60.6" fill="url(#bf)"/></g><g clip-path="url(#bg)" transform="matrix(.02131 0 0 -.02131 -146.546 25.706)"><path d="M6542.92 3182.1l-31.18 2.4c-4.09 4.93-8.35 9.71-12.77 14.35h35.27l8.68-16.75" fill="url(#bh)"/></g><g clip-path="url(#bi)" transform="matrix(.02131 0 0 -.02131 -146.546 25.706)"><path d="M5682.7 3251.93l-173.22 334.48h142.38l30.84-59.54v-274.94" fill="url(#bj)"/></g><g clip-path="url(#bk)" transform="matrix(.02131 0 0 -.02131 -146.546 25.706)"><path d="M6144.77 2634.58H6002.4l-34.91 67.42h49.81l.13-1.7.31-3.65h94.89l32.14-62.07m-219.7 149.32l-.04.08v18.57c1.36-6.37 3.29-12.51 5.83-18.39h-5.79v-.26m86.15.26h-.35l-5.04 67.44h.36l5.03-67.44m-86.19 72.02v202.72l.04-.07v-57.65h29.85l4.93-9.52c-5.42-19.31-10.68-38.64-15.85-57.9h-18.93v-77.33c-.01-.09-.02-.17-.04-.25" fill="url(#bl)"/></g><g clip-path="url(#bm)" transform="matrix(.02131 0 0 -.02131 -146.546 25.706)"><path d="M5925.03 2783.98l-242.33 467.95v274.94l242.33-467.97v-202.72c-.9-5.85-1.59-11.69-2.01-17.52-.99-12.59-.41-24.71 2.01-36.11v-18.57" fill="url(#bn)"/></g><g clip-path="url(#bo)" transform="matrix(.02131 0 0 -.02131 -146.546 25.706)"><path d="M5954.92 3001.18h-29.85v57.65l29.85-57.65" fill="url(#bp)"/></g><g clip-path="url(#bq)" transform="matrix(.02131 0 0 -.02131 -146.546 25.706)"><path d="M6006.19 2851.6h-.36l-4.46 59.9.41-.8 4.41-59.1m-81.12 4.83v77.33H5944c-.06-.23-.13-.47-.19-.7-6.67-24.82-14.73-50.76-18.74-76.63" fill="url(#br)"/></g><g clip-path="url(#bs)" transform="matrix(.02131 0 0 -.02131 -146.546 25.706)"><path d="M6017.3 2702h-49.81l-42.42 81.9v.26h5.79c5.78-13.34 14.76-25.31 27.45-35.41 17.1-13.59 37.1-22.99 57.5-30.89l-4.94 66.3h.35l3.36-45.02 2.72-37.14" fill="url(#bt)"/></g><g clip-path="url(#bu)" transform="matrix(.02131 0 0 -.02131 -146.546 25.706)"><path d="M6179.36 2567.78h-142.37l-34.59 66.8h142.37l34.59-66.8" fill="url(#bv)"/></g><g clip-path="url(#bw)" transform="matrix(.02131 0 0 -.02131 -146.546 25.706)"><path d="M5492.84 3762.74c.46 3.84.69 7.75.69 11.7 0 55.49-44.98 100.47-100.46 100.47-9.81 0-19.31-1.4-28.28-4.04a78.903 78.903 0 0 1-13.15 20.32l-319.63 617.21h142.39l381.14-735.99c-1.38.03-2.77.05-4.16.05-20.47 0-40.18-3.43-58.54-9.72" fill="url(#bx)"/></g><g clip-path="url(#by)" transform="matrix(.02131 0 0 -.02131 -146.546 25.706)"><path d="M8147.75 2567.78h-40.61v95.83l49.43-95.45c-2.91-.25-5.85-.38-8.82-.38m-178.33 361.77h-56.66v78.94h15.78l40.88-78.94" fill="url(#bz)"/></g><g clip-path="url(#bA)" transform="matrix(.02131 0 0 -.02131 -146.546 25.706)"><path d="M8107.14 2567.78h-92.77l-25.07 48.42v91.08h-38.25v-17.22l-164.9 318.43h126.61v-78.94h56.66l137.72-265.94v-95.83" fill="url(#bB)"/></g><g clip-path="url(#bC)" transform="matrix(.02131 0 0 -.02131 -146.546 25.706)"><path d="M7989.3 2616.2l-38.25 73.86v17.22h38.25v-91.08" fill="url(#bD)"/></g><g clip-path="url(#bE)" transform="matrix(.02131 0 0 -.02131 -146.546 25.706)"><path d="M7550.99 3462.59L7009.41 4508.4h142.39l521.04-1006.14a126.654 126.654 0 0 1-26.38-38.16c-14.36 4.23-29.57 6.47-45.28 6.47-17.53 0-34.4-2.8-50.19-7.98" fill="url(#bF)"/></g><path d="M27.118-29.025h-66.261a2.165 2.165 0 0 1-2.165-2.164v-37.525c0-.924.75-1.674 1.673-1.674H27.61c.924 0 1.674.75 1.674 1.674v37.525c0 1.195-.97 2.164-2.165 2.164m-67.403 1.142H28.26c1.196 0 2.165-.97 2.165-2.165v-39.808c0-.924-.75-1.673-1.674-1.673h-69.526c-.924 0-1.673.75-1.673 1.673v39.808c0 1.196.969 2.165 2.164 2.165" fill="#dae4f7"/><g clip-path="url(#bG)" transform="matrix(.02131 0 0 -.02131 -146.546 25.706)"><path d="M5682.7 3586.41h-30.84l-96.32 186c50.07-1.13 95.1-22.62 127.16-56.51v-129.49" fill="url(#bH)"/></g><g clip-path="url(#bI)" transform="matrix(.02131 0 0 -.02131 -146.546 25.706)"><path d="M5732.01 3586.41h-49.31v129.49c4.63-4.9 8.98-10.05 13.05-15.44l27.82-53.73c5.53-17.34 8.52-35.81 8.52-54.98 0-1.8-.03-3.57-.08-5.34" fill="url(#bJ)"/></g><g clip-path="url(#bK)" transform="matrix(.02131 0 0 -.02131 -146.546 25.706)"><path d="M5509.48 3586.41h-333.59c-28.96 5.59-50.83 31.06-50.83 61.67 0 27.89 18.19 51.51 43.36 59.71-10.93 11.29-17.67 26.68-17.67 43.65 0 34.67 28.12 62.78 62.81 62.78 1.3 0 2.6-.04 3.9-.11-2.54 7.72-3.9 15.97-3.9 24.52 0 43.66 35.38 79.05 79.05 79.05 23.47 0 44.56-10.24 59.03-26.49l157.84-304.78" fill="url(#bL)"/></g><g clip-path="url(#bM)" transform="matrix(.02131 0 0 -.02131 -146.546 25.706)"><path d="M5723.57 3646.73l-27.82 53.73a180.022 180.022 0 0 0 27.82-53.73" fill="url(#bN)"/></g><g clip-path="url(#bO)" transform="matrix(.02131 0 0 -.02131 -146.546 25.706)"><path d="M5651.86 3586.41h-142.38l-157.84 304.78a78.903 78.903 0 0 0 13.15-20.32c8.97 2.64 18.47 4.04 28.28 4.04 55.48 0 100.46-44.98 100.46-100.47 0-3.95-.23-7.86-.69-11.7 18.36 6.29 38.07 9.72 58.54 9.72 1.39 0 2.78-.02 4.16-.05l96.32-186" fill="url(#bP)"/></g><g clip-path="url(#bQ)" transform="matrix(.02131 0 0 -.02131 -146.546 25.706)"><path d="M7949.02 3008.49h-20.48l-15.78 30.47v43.8h-22.68l-217.24 419.5c22.88 22.76 54.42 36.82 89.24 36.82 69.93 0 126.61-56.67 126.61-126.6 0-13.7-2.18-26.92-6.25-39.29 2.08.13 4.17.19 6.25.19 55.57 0 100.6-45.03 100.6-100.57 0-27.17-10.8-51.82-28.3-69.9 40.32-13.13 69.45-50.97 69.45-95.65 0-49.01-35.03-89.81-81.42-98.77" fill="url(#bR)"/></g><g clip-path="url(#bS)" transform="matrix(.02131 0 0 -.02131 -146.546 25.706)"><path d="M7912.76 3038.96l-22.68 43.8h22.68v-43.8" fill="url(#bT)"/></g><g clip-path="url(#bU)" transform="matrix(.02131 0 0 -.02131 -146.546 25.706)"><path d="M7759.64 3008.49h-56.09c-6.96 27.67-17.93 49.5-35.2 51.23-.66.07-1.33.1-1.97.1-16.78 0-24.34-22.5-27.14-51.33h-18.01c-9.5 13.21-20.65 25.81-28.66 25.81-3.39 0-6.22-2.27-8.11-7.71-2.2-6.31-2.87-12.38-2.37-18.1h-96.38v74.88h-61.15c-24.93 57.97-55.97 103.92-93.03 111.7-34.25 26.81-77.62 44.56-129.46 53.05-3.91 1.13-8.25 1.71-12.81 1.89-3.82.5-7.68.95-11.59 1.36 47.72 34.66 106.45 55.11 169.95 55.11 32.78 0 64.34-5.49 93.75-15.56-.72 6.16-1.1 12.4-1.1 18.75 0 71.34 46.43 131.83 110.72 152.92l208.65-402.91v-51.19" fill="url(#bV)"/></g><g clip-path="url(#bW)" transform="matrix(.02131 0 0 -.02131 -146.546 25.706)"><path d="M7485.71 3008.49h-33.79c-8.11 25.78-17.23 51.32-27.36 74.88h61.15v-74.88" fill="url(#bX)"/></g><g clip-path="url(#bY)" transform="matrix(.02131 0 0 -.02131 -146.546 25.706)"><path d="M7786.15 3008.49h-26.51v51.19l26.51-51.19" fill="url(#bZ)"/></g><g clip-path="url(#ca)" transform="matrix(.02131 0 0 -.02131 -146.546 25.706)"><path d="M7928.54 3008.49h-15.78v30.47l15.78-30.47m-168.9 51.19l-208.65 402.91c15.79 5.18 32.66 7.98 50.19 7.98 15.71 0 30.92-2.24 45.28-6.47a126.654 126.654 0 0 0 26.38 38.16l217.24-419.5h-130.44v-23.08" fill="url(#cb)"/></g><g clip-path="url(#cc)" transform="matrix(.02131 0 0 -.02131 -146.546 25.706)"><path d="M7912.76 3008.49h-126.61l-26.51 51.19v23.08h130.44l22.68-43.8v-30.47" fill="url(#cd)"/></g><path d="M28.009-68.518H-40.67l.498-1.08h68.678l-.498 1.08" fill="#fff"/><path d="M-27.005-61.167a.25.25 0 0 1-.249-.249v-8.969a.249.249 0 1 1 .498 0v8.97c0 .137-.111.248-.249.248M14.842-61.167a.25.25 0 0 1-.249-.249v-8.969a.249.249 0 1 1 .498 0v8.97a.25.25 0 0 1-.249.248" fill="#dae4f7"/><path d="M28.009-67.023H-40.67l.498-1.08h68.678l-.498 1.08M28.009-65.529H-40.67l.498-1.079h68.678l-.498 1.08" fill="#fff"/><path d="M.553-29.633l-.045-.1c-.011-.023-1.068-2.398.834-4.52 1.037-1.157 1.013-2.862.869-4.532l-5.95.576-6.795-2.597 1.125-1.491 7.112.548 5.265-1.263c.573-.423 1.396-.637 2.445-.637.056 0 .109 0 .159.002 1.735.034 3.131.456 4.149 1.252 2.333.49 3.545 8.078 3.596 8.403l.002.017-.002.064c.336.37.313.995-.068 1.776l-.146.275c-.043.075-.072.119-.072.119l-.051.079h-2.336a43.705 43.705 0 0 1-.476 2.05l-.034.131-9.58-.153" fill="#f2bf40"/><path d="M-.1-23.335L-1.298-6.348h.799l1.425-16.93-1.026-.057M6.797-23.335L7.994-6.348h-.798l-1.425-16.93 1.026-.057" fill="#5b7da2"/><path d="M9.001-22.423h-10.83v-.567a2.284 2.284 0 0 1 2.283-2.283h6.263a2.284 2.284 0 0 1 2.284 2.283v.567" fill="#ab9ded"/><path d="M8.176-12.847H-1.48a.388.388 0 0 1-.389-.388v-.192c0-.215.174-.389.389-.389h9.655c.214 0 .388.174.388.389v.192a.388.388 0 0 1-.388.388" fill="#5b7da2"/><path d="M-1.192-15.79l.693 1.536s1.461-.47 1.387-.545c-.074-.074-1.337-2.526-1.337-2.526l-.743 1.536" fill="#ffb092"/><path d="M1.631-30.028s-6.835 2.452-9.086 7.22c-.38.804 5.92 7.523 5.92 7.523l2.22-.74-3.454-6.598 5.18-2.467s4.396.896 5.365-.123c2.2-2.314 1.829-4.74 1.829-4.74l-7.974-.075M-.66-14.303S.752-14.7.826-14.985c0 0-.099-.532.31-.049.408.483.644.879.52 1.09-.124.21-3.715 2.092-3.715 2.092s-.656-.248.1-.842c.755-.594 1.3-1.61 1.3-1.61" fill="#002863"/><path d="M7.271-16.141l.241 1.627 1.263-.074-.083-1.837-1.421.284" fill="#fab19e"/><path d="M7.426-14.75c-.135.27-.354 1.686-.354 1.686h2.074s.063-1.028-.247-1.673c-.161-.334-1.313-.334-1.473-.012" fill="#25377a"/><path d="M7.576-14.244a.66.66 0 0 0-.567.455c-.086.263-.167.598-.121.824v.213l2.493.043s.234-1.4-.405-1.463c-.4-.04-.994-.11-1.4-.072" fill="#002863"/><path d="M4.264-26.053c-1.307 2.479 2.778 10.858 2.778 10.858l2.006-.099s.388-7.931-.385-10.42c-.327-1.054-2.5-3.942-4.4-.34" fill="#04357b"/><path d="M5.568-43.474c-.938-.019-2.915.102-3.276 1.83-.361 1.728 1.027 5.445-.821 7.507-1.848 2.062-.806 4.332-.806 4.332l9.336.149s1.875-7.048 1.038-10.444c0 0-.518-3.275-5.47-3.374" fill="#ffd04d"/><g clip-path="url(#ce)" transform="matrix(.02131 0 0 -.02131 -146.546 25.706)"><path d="M7202.07 3248.12c-4.22.69-8.48 1.32-12.81 1.89 4.56-.18 8.9-.76 12.81-1.89" fill="url(#cf)"/></g><path d="M7.288-43.288a8.852 8.852 0 0 0-1.393-.175 3.142 3.142 0 0 1 .793-.103c.093.012.183.026.273.04a.522.522 0 0 1 .327.238" fill="#cea965"/><path d="M6.242-41.7c-.147 0-.299-.019-.448-.046-.705-.129-.478-1.536-.478-1.536s.252-.1.579-.18c.513.025.976.086 1.393.174.054.096.079.22.066.379-.08.958-.565 1.209-1.112 1.209" fill="#d8b66f"/><path d="M5.169-43.867l.192 1.127s.148.894 1.006.61c.858-.285.941-.745.941-.745l.018-1.327-2.157.335" fill="#f3ab9c"/><path d="M5.146-48.381l-.891 2.043s-.852-2.553.729-4.247c.756-.81 3.556-.729 4.365.6.808 1.327-.08 5.227-.866 5.725-.785.499-.959.628-.854.392.104-.236 1.124-2.212.868-3.186-.257-.974-.834-2.365-3.351-1.327" fill="#020464"/><path d="M8.818-46.406c.053-1.545-.74-2.85-1.894-3.007-1.263-.173-2.479 1.09-2.716 2.821-.237 1.732.595 3.275 1.857 3.448 1.05.143 2.067-.706 2.516-1.99.33-.075.486-.652.532-1.02.037-.304-.187-.28-.295-.252" fill="#f3ab9c"/><path d="M4.492-48.646s.754 1.281 1.514.847c.76-.433.999-.554 1.676-.529.678.026.754 1.588.563 2.192-.19.604.748-.926.748-.926s-.026-.985-.574-2.62c-.547-1.634-1.141-1.01-2.001-1.95-.86-.94-2.14.068-1.896.995.244.927-.03 1.99-.03 1.99" fill="#020464"/><path d="M5.484-46.327s-.823 1.219-.151 1.328c.673.108.15-1.328.15-1.328M5.214-43.5s1.06.618 2.102.048c0 0-.236.806-.998.613-.762-.193-1.104-.66-1.104-.66" fill="#f69982"/><path d="M3.846-43.045l-6.13 1.47-7.044-.542-.93 1.231 6.543 2.5 6.546-.634 1.015-4.025" fill="#ffd04d"/><path d="M-17.277-22.823l-1.161 16.475h.774l1.382-16.42-.995-.055M-10.588-22.823l1.16 16.475h-.773l-1.382-16.42.995-.055" fill="#5b7da2"/><path d="M-8.45-21.938h-10.504v-.48a2.284 2.284 0 0 1 2.283-2.284h5.937a2.284 2.284 0 0 1 2.283 2.283v.48" fill="#ab9ded"/><path d="M-9.263-12.65h-9.34a.388.388 0 0 1-.388-.389v-.163c0-.215.174-.389.388-.389h9.34c.215 0 .389.174.389.389v.163a.388.388 0 0 1-.389.388" fill="#5b7da2"/><path d="M-18.056-15.418l.694 1.535s1.46-.47 1.386-.544c-.074-.075-1.337-2.526-1.337-2.526l-.743 1.535M-11.543-15.764l-.718 1.807 1.189.397 1.04-1.982-1.51-.222" fill="#ffb092"/><path d="M-18.34-30.696l-.236 2.005 10.55-.445-.473-1.635-9.84.075" fill="#7fcaef"/><path d="M-18.056-30.696l-.222 2.005 9.954-.445-.445-1.635-9.287.075" fill="#91d6fe"/><path d="M-18.337-29.59s-6.475 6.413-5.981 7.153c.493.74 5.92 7.523 5.92 7.523l2.219-.74-3.453-6.598 5.18-2.466s4.254.74 5.364-.124c1.11-.863 2.158-4.748 2.158-4.748h-11.407" fill="#002863"/><path d="M-9.396-28.295L-12.48-15.16l2.466.617s4.933-8.571 4.933-11.1c0-2.527-.493-4.069-2.22-3.946-1.726.124-2.096 1.295-2.096 1.295" fill="#04357b"/><path d="M13.547-6.329l-.995-.347 8.533-24.433.995.347L13.547-6.33" fill="#5b7da2"/><path d="M21.33-6.406l.986-.366-9.013-24.26-.987.366 9.013 24.26" fill="#5b7da2"/><path d="M24.036-6.041H11.128a.73.73 0 0 1-.73-.73v-.345a.73.73 0 0 1 .73-.73h12.908a.73.73 0 0 1 .73.73v.344a.73.73 0 0 1-.73.731" fill="#5b7da2"/><path d="M24.289-30.915a.9.9 0 0 1-.902.904h-57.312a.904.904 0 0 1-.637-1.541.895.895 0 0 1 .637-.264h57.312a.9.9 0 0 1 .902.901" fill="#ab9ded"/><path d="M-31.776-6.329l-.994-.347 8.532-24.433.995.347-8.533 24.433" fill="#5b7da2"/><path d="M-23.994-6.406l.987-.366-9.013-24.26-.987.366 9.013 24.26" fill="#5b7da2"/><path d="M-21.287-6.041h-12.908a.73.73 0 0 1-.731-.73v-.345a.73.73 0 0 1 .73-.73h12.909a.73.73 0 0 1 .73.73v.344a.73.73 0 0 1-.73.731" fill="#5b7da2"/><path d="M-21.287-30.012h-12.908a.73.73 0 0 1-.731-.73v-.344a.73.73 0 0 1 .73-.731h12.909a.73.73 0 0 1 .73.73v.345a.73.73 0 0 1-.73.73" fill="#beadfb"/><path d="M6.578-34.2a2.756 2.756 0 0 1-1.121 2.067v.322h-1.33v-.345A2.76 2.76 0 0 1 3.044-34.2c.35-.11 1.01-.183 1.767-.183.757 0 1.417.073 1.767.183M-21.919-34.225a2.758 2.758 0 0 1-1.121 2.067v.322h-1.33v-.344a2.759 2.759 0 0 1-1.083-2.045c.35-.11 1.01-.183 1.768-.183.756 0 1.416.074 1.766.183" fill="#fff"/><path d="M-5.856-32.884a1.777 1.777 0 0 1-.247.4c-.033.039-.065.077-.098.111-.226.241-.51.42-.817.557h-.786l.062-.017.019-.007c.34-.091.678-.215.98-.396a1.968 1.968 0 0 0 .354-.268c.381-.372.554-.868.558-1.437.007-.631-.08-1.269-.136-1.9-.051-.592-.1-1.189-.173-1.783-.134-1.092-.343-2.196-.786-3.21-.48-1.085-1.247-1.925-2.227-2.586-.446-.305-.928-.548-1.382-.842-.042-.027-.087-.055-.128-.083-.038-.028-.076-.053-.112-.08l.023-.014c.04-.023.1-.053.153-.09.066.046.132.084.197.127.093.057.187.113.283.168.603.352 1.206.714 1.741 1.164 1.863 1.566 2.28 4.035 2.498 6.33.066.701.124 1.403.186 2.104.049.584.083 1.204-.162 1.752" fill="#7fcaef"/><path d="M-14.09-49.079l-1.867-1.896a.583.583 0 0 0-.339.234c-.15.218-.133.51-.067.765.262 1.012 1.44 2.806 1.658 3.828 2.36.75.782-2.318.615-2.931" fill="#020464"/><path d="M-14.64-46.558c-.11-.316-.153-.64-.223-.965-.016-.075-.07-.068-.093-.021l.035-.029c.04.499.161.99.357 1.448.064.147.136.292.239.416l.012.014c.032.04.07.075.107.108l.005-.017s.201.068.465.152a1.258 1.258 0 0 1-.46-.264c-.232-.213-.346-.552-.445-.842zm3.563-2.12c.01.331.007.668.005 1v.192c.245.112.154-.43.285-.823.107-.325-.143-.37-.29-.37" fill="#ffb092"/><path d="M-11.073-47.678v.192a.398.398 0 0 1-.07-.042v.262c-.002.25-.004.502-.068.743-.102.388-.37.723-.708.94l-.04.024.077.065.491.423s-.444.332-.72.575c-.273.246-.638.44-.963.515-.325.075-1.485-.877-1.485-.877.122-.056.26-.442.323-.636.014-.042.026-.077.03-.093l.005-.017s.201.068.465.152a1.258 1.258 0 0 1-.46-.264c-.232-.213-.346-.552-.445-.842-.11-.316-.152-.64-.222-.965-.016-.075-.07-.068-.093-.021-.351.282-.227-.333-.372-.765-.103-.311.126-.328.276-.332l-.021-.353c.863.514 1.94.55 2.932.374.33-.059.664-.145.97-.274l.007-.004.019-.01c-.014.024.01.232.01.232.016-.003.034-.003.058-.003.01.332.007.67.005 1.001" fill="#ffb092"/><path d="M-10.005-52.51c-.306-.26-.762-.217-1.15-.121a5.84 5.84 0 0 0-1.38.54l.255.227c-.516-.447-1.094-.917-1.777-.924-.304-.005-.603.089-.879.217-.51.239-.968.627-1.19 1.144-.407.951.131 2.118 1.006 2.67.023.016.049.03.072.042.863.515 1.94.55 2.932.374.34-.06.683-.147.996-.287.29-.127.557-.3.77-.533.537-.587.652-1.44.67-2.236.01-.4-.02-.853-.325-1.113" fill="#020464"/><path d="M-15.714-44.24l-.033.013c-1.015.456-2.071 1.223-2.492 2.285-.662 1.66-1.155 3.407-1.618 5.132-.176.65-.395 1.335-.444 2.011-.06.76.15 1.438.752 1.917.365.29.79.491 1.226.66l.119.044.037.014c.112.042.225.082.337.12l.01.004c.081.028.062.316-.033.28-.108-.037-.218-.074-.328-.116-.04-.014-.082-.028-.121-.045a5.806 5.806 0 0 1-.489-.203h-.002c-.386-.178-.749-.4-1.043-.706-.52-.538-.643-1.277-.594-2.002.05-.715.276-1.438.46-2.125.279-1.034.585-2.06.91-3.082.246-.767.484-1.55.804-2.291.148-.349.384-.625.648-.896a5.821 5.821 0 0 1 1.8-1.267l.061-.028.026-.002.01.004.016.016.016.03v.003l.003.003c.023.077.014.203-.038.226" fill="#7fcaef"/><path d="M-10.916-44.778a1.681 1.681 0 0 0-.447-.131l-.053-.01.023-.018c.051-.061.019-.227-.065-.192h-.003l-.042.02-.049.029c-.514.285-.853.956-1.478.998-.355.024-.68-.28-.958-.467l-.466-.307-.023-.016-.01-.007-.025-.016-.004-.005-.003-.002c-.037-.028-.08-.061-.12-.087v-.002h-.002l-.032-.021a.39.39 0 0 0-.192-.068c-.04 0-.035.065-.023.087a.783.783 0 0 0 .168.173 1.061 1.061 0 0 0-.828.197l-.04.034a.424.424 0 0 0-.067.077l-.021.042v.003l.002.004a.579.579 0 0 0 .11.157c.15.166.383.292.55.405.214.147.436.282.663.41.433.244.891.483 1.363.64-.007-.237-.009-.473-.014-.71 0-.107-.006-.21.01-.31a.573.573 0 0 0 .114-.017c-.032.347-.016.704.003 1.055.222-.002.39-.248.551-.398a10.41 10.41 0 0 1 1.226-.98c.107-.074.212-.144.322-.214l.024-.014c.04-.024.1-.052.154-.09l.045-.03c-.094-.098-.283-.182-.363-.22M-9.08-37.736h-2.315c.053-.02.107-.04.156-.06.148-.066.293-.136.433-.218.276-.161.512-.374.692-.638.341-.496.472-1.071.629-1.642v-.02c.002-.045.052-.104.077-.036.084.213.094.468.124.692.03.23.06.458.086.688.024.222.05.444.068.666.017.18.057.381.05.568M-14.823-37.736h-1.857c.019-.13.03-.262.03-.393a6.574 6.574 0 0 0-.041-.773c-.05-.51-.131-1.041-.017-1.544.019-.077.08-.03.073.028-.003.038-.007.075-.007.113l.014.04c.049.595.521 1.06.88 1.503.167.205.33.414.506.612.094.108.192.208.297.307.038.037.082.07.122.107" fill="#7fcaef"/><path d="M-5.83-33.941c-.005.569-.178 1.065-.56 1.436-.274.373-.74.582-1.105.689h-.25l.003-.017.407-5.218a.634.634 0 0 0-.637-.684h-1.11c.01-.188-.031-.388-.048-.57-.02-.221-.045-.442-.068-.664-.026-.23-.056-.459-.085-.689-.03-.224-.04-.48-.124-.692-.026-.069-.075-.009-.08.036v.021c-.155.57-.284 1.145-.628 1.641a2.102 2.102 0 0 1-.69.638c-.141.083-.286.153-.433.217-.05.021-.105.04-.158.062h-3.427c-.04-.039-.083-.07-.122-.109a4.436 4.436 0 0 1-.296-.305c-.177-.2-.339-.407-.507-.614-.358-.44-.831-.905-.88-1.502l-.013-.04c0-.037.004-.075.006-.114.007-.057-.053-.104-.072-.027-.115.503-.034 1.033.017 1.543.025.258.045.516.04.773 0 .133-.01.263-.03.395h-1.368a.637.637 0 0 0-.635.684l.36 4.828c-.435-.169-.861-.37-1.226-.659-.603-.48-.812-1.157-.752-1.916.05-.676.269-1.362.443-2.012.463-1.725.958-3.472 1.618-5.133.422-1.061 1.48-1.829 2.494-2.285l-.02-.034-.008-.017-.004-.006-.009-.021a.505.505 0 0 1-.02-.188.52.52 0 0 1 .095-.284.82.82 0 0 1 .324-.24c.25-.118.537-.141.801-.066l.003.002h.004l.02.006.008.013.008.008.009.02.006.019.004.015.009.025a.296.296 0 0 1 0 .077v.008l-.01.035-.007.019-.006.021v.002l-.032.026h-.003l-.002.002-.04.034c-.036-.021-.07-.045-.105-.068-.08-.015-.164-.02-.245-.015a1.072 1.072 0 0 0-.285.053 1.13 1.13 0 0 0-.297.158l-.04.034a.405.405 0 0 0-.068.079l-.02.04v.007l.003.002a.576.576 0 0 0 .108.155c.15.167.384.293.55.405.216.148.437.284.665.412.433.243.891.482 1.362.637l.011.004a.34.34 0 0 0 .103.015c.221-.002.39-.247.551-.396.192-.18.389-.35.593-.512a9.71 9.71 0 0 1 .633-.469 8.72 8.72 0 0 1 .322-.215l.023-.013c.04-.023.1-.053.154-.09l.045-.029c-.094-.098-.284-.183-.363-.22a.354.354 0 0 0-.066-.025 1.597 1.597 0 0 0-.38-.107l-.055-.008-.023-.004c-.028-.007-.047-.032-.056-.068l-.006-.045a.363.363 0 0 1 0-.073l.008-.051a.091.091 0 0 1 .032-.053l.022-.007c.302.047 1.3.337 1.038.817l-.028.042a.385.385 0 0 1-.104.098c.454.294.935.537 1.381.842.98.66 1.748 1.5 2.227 2.586.443 1.014.652 2.118.787 3.21.072.594.121 1.191.172 1.784.056.63.143 1.268.137 1.899" fill="#91d6fe"/><path d="M-7.453-37.517l-.416 5.603H-18.15l-.417-5.603a.508.508 0 0 1 .138-.393.51.51 0 0 1 .381-.166h10.076a.51.51 0 0 1 .38.166c.102.108.15.246.139.393" fill="#dae4f8"/><path d="M-7.89-31.99l-.004.05h-10.232l-.414-5.579a.485.485 0 0 1 .13-.373.484.484 0 0 1 .363-.157h10.075c.14 0 .27.056.362.157a.484.484 0 0 1 .131.373l-.35 4.71-.061.818m.405-6.016a.66.66 0 0 0-.487-.212h-10.075a.663.663 0 0 0-.662.713l.36 4.83.06.827.007.078h10.545l.427-5.734a.664.664 0 0 0-.175-.502" fill="#7fcaef"/><path d="M-12.598-37.794c0 .024-.077.028-.082 0-.103-.5-.111-.978-.149-1.485-.04-.577-.07-1.157-.098-1.735a68.723 68.723 0 0 1-.054-1.54l-.004-.195c0-.035-.003-.068-.003-.103-.007-.236-.01-.472-.014-.708 0-.108-.007-.21.01-.311a.459.459 0 0 1 .044-.143l.01-.023c.018-.033.037-.024.05 0l.02.058c-.005.03-.008.061-.01.091-.033.346-.016.704.002 1.055.007.1.012.199.014.297.005.044.005.086.007.131.017.521.038 1.043.064 1.562.023.521.056 1.04.086 1.56.033.51.125.977.107 1.49M-12.103-41.758l.362-.198.181-.1c.064-.034.128-.069.165-.134.013-.022.017-.081-.018-.09-.037-.009-.062-.002-.097.01-.03.01-.058.027-.086.042l-.18.1c-.121.065-.242.132-.362.198-.038.02-.047.072-.039.11.006.03.036.083.074.062M-11.74-41.1a2.19 2.19 0 0 1 .736-.387c.09-.027.183-.042.264-.09.022-.012.03-.074-.002-.081a.557.557 0 0 0-.273.033 2.233 2.233 0 0 0-.774.405c-.044.036-.01.166.05.12M-12.035-40.25a.784.784 0 0 0 .15-.077.483.483 0 0 0 .075-.06l.036-.04.023-.053c.013-.028 0-.085-.04-.076h-.002l-.008.003-.019.003-.021.012-.016.01-.067.041a.762.762 0 0 1-.146.069l-.033.041a.129.129 0 0 0-.005.068c.008.033.033.075.073.06M-10.805-40.459c.102-.043.198-.098.29-.161.091-.064.194-.141.228-.252.006-.02.005-.077-.03-.074-.051.005-.089.038-.13.068-.042.032-.083.066-.126.096a1.508 1.508 0 0 1-.268.145c-.04.016-.05.078-.04.115.008.033.035.082.076.063M-11.982-39.436l.286-.204c.047-.033.094-.067.14-.103l.07-.057c.027-.02.044-.046.063-.074.014-.02.013-.097-.028-.091a.187.187 0 0 0-.078.024l-.074.046a3.207 3.207 0 0 0-.151.1l-.292.205c-.034.024-.032.09-.018.123.015.037.047.055.082.03M-10.88-39.008a1.386 1.386 0 0 0 .373-.255.46.46 0 0 0 .059-.065c.02-.03.03-.06.033-.095.001-.021-.001-.066-.03-.072l-.03-.006-.038.019c-.021.014-.039.032-.057.049a1.26 1.26 0 0 1-.349.234c-.042.019-.052.083-.043.123.009.035.038.089.083.068M-15.377-41.506a3.582 3.582 0 0 0 .472-.3.933.933 0 0 0 .072-.06.318.318 0 0 0 .065-.09.083.083 0 0 0 .007-.065l-.036-.035a.185.185 0 0 0-.08.027c-.026.017-.052.033-.076.051a3.472 3.472 0 0 1-.46.293c-.04.021-.05.076-.04.116.006.03.036.084.076.063M-14.425-41.68a1.5 1.5 0 0 0 .632-.193.409.409 0 0 0 .174-.16c.013-.025.016-.099-.028-.096-.07.006-.123.046-.182.08a1.419 1.419 0 0 1-.6.184c-.084.005-.078.192.004.186M-15.594-40.391a4.478 4.478 0 0 1 .553-.292c.067-.029.142-.051.182-.115.014-.021.011-.062-.014-.073-.063-.03-.14.016-.198.04a4.545 4.545 0 0 0-.555.287c-.033.02-.042.063-.034.099.005.024.033.074.066.054M-14.203-40.65a2.097 2.097 0 0 0 .588-.204.64.64 0 0 0 .089-.057.16.16 0 0 0 .068-.103l-.019-.064c-.033-.022-.053-.017-.088-.001a.991.991 0 0 0-.087.044 1.998 1.998 0 0 1-.555.212c-.04.009-.055.05-.054.088 0 .026.019.092.058.084M-15.189-39.422a3.364 3.364 0 0 1 .538-.195c.03-.008.06-.014.089-.024l.049-.02.037-.04c.017-.022.014-.075-.01-.091l-.045-.023-.051.002c-.03.003-.061.012-.092.02a3.198 3.198 0 0 0-.552.192c-.072.032-.044.216.037.179M-14.244-38.76a.692.692 0 0 0 .421-.092c.133-.073.287-.17.344-.317.01-.026.003-.08-.032-.081-.066-.002-.123.042-.176.076-.06.039-.115.081-.178.115a.613.613 0 0 1-.384.08c-.051-.008-.07.076-.07.111.002.048.023.101.075.108M-14.871-37.98a2.731 2.731 0 0 0 .79-.102c.083-.024.194-.042.24-.123.018-.031.014-.08-.02-.099-.068-.037-.17.023-.238.044a2.746 2.746 0 0 1-.776.117c-.072 0-.07.162.004.163M-11.9-38a2.7 2.7 0 0 0 .628-.192c.035-.016.069-.036.101-.057a.327.327 0 0 0 .09-.088c.024-.032.015-.121-.037-.121a.237.237 0 0 0-.106.02l-.09.039a2.485 2.485 0 0 1-.59.197c-.048.01-.066.059-.065.103.001.032.022.108.07.1" fill="#f1f2f2"/><path d="M-11.822-35.163a1.042 1.042 0 1 1-2.084 0 1.042 1.042 0 0 1 2.084 0" fill="#7fcaef"/><path d="M-13.152-34.41c-.215 0-.413-.066-.578-.176a1.04 1.04 0 0 1 1.443-1.443 1.043 1.043 0 0 1-.865 1.618" fill="#67b0d7"/><path d="M-17.523-13.932s1.411-.396 1.486-.681c0 0-.1-.532.31-.05.408.483.643.88.52 1.09-.125.21-3.715 2.093-3.715 2.093s-.657-.248.099-.842c.755-.595 1.3-1.61 1.3-1.61" fill="#002863"/><path d="M7.896-39.611l1.436 5.497-3.516.793 5.696.05-2.378-6.637-1.238.297" fill="#eab83b"/><path d="M-10.936-13.82s-1.061-.112-1.135-.397c0 0 .099-.532-.31-.05-.408.484-.644.88-.52 1.09.124.21.355 1.201 1.668 1.474.348.072.999-.255.57-1.115-.15-.297-.273-1.003-.273-1.003" fill="#002863"/><path d="M7.723-39.388l2.674 5.72-.149 1.634 2.728-.021.17-1.91s-1.238-7.924-3.517-8.271c-1.301-.198-2.724.768-1.906 2.848" fill="#ffd04d"/><path d="M6.163-33.099l-1.189.05s-1.226-1.096-1.077-.625c.148.47.037.415.037.415s-.997-.52-1.022.13c-.017.47-.15 1.315 1.04 1.293 1.01-.018 1.294-.222 1.294-.222h.966l-.05-1.04" fill="#f3ab9c"/><path d="M5.618-33.272v1.436h7.268s1.065-1.634.074-2.13c-.99-.495-7.342.694-7.342.694" fill="#ffd04d"/><path d="M16.389-35.798h1.518s.045-3.607-1.007-3.712c-1.052-.105-.511 3.712-.511 3.712" fill="#27aa97"/><path d="M16.299-37.782s-.947-1.713-1.187-1.022c-.24.692.375 1.248.856 1.368.481.12.33-.346.33-.346" fill="#27aa97"/><path d="M17.651-35.798h1.217s.647-2.42-.18-2.45c-.826-.03-1.142 1.037-1.037 2.45" fill="#44bfb2"/><path d="M18.914-36.745s.21-.24.375-.436c.166-.195.706-.24.571.15-.135.391-.676.857-.901.722-.226-.135-.045-.436-.045-.436" fill="#44bfb2"/><path d="M16.779-36.335c-.012 0-.024-.011-.025-.034-.014-.208-.012-.417-.02-.626a4.448 4.448 0 0 0-.089-.636c-.07-.374-.06-.74.053-1.105.004-.013.01-.018.016-.018.015 0 .032.031.026.053-.118.41-.084.8-.006 1.213.07.366.076.747.07 1.118-.001.023-.013.035-.025.035M17.167-36.703c-.012 0-.017-.031-.015-.04.025-.094.06-.179.063-.278.003-.085-.009-.17-.027-.253-.037-.165-.103-.32-.161-.478-.1-.276-.183-.583-.057-.865.005-.012.011-.016.018-.016.015 0 .029.028.02.048-.156.36.05.725.164 1.064.048.14.088.287.094.437.004.122-.007.279-.09.376-.003.004-.006.005-.01.005M17.482-37.42c-.033-.075-.03-.172-.039-.253l-.029-.275-.057-.56c-.001-.016.009-.026.018-.026.007 0 .014.006.015.018l.067.558.03.273c.01.083.033.177.02.26l-.025.005" fill="#64c0b2"/><path d="M18.124-35.96c-.006 0-.012-.004-.016-.013-.05-.119-.045-.286-.05-.413a3.904 3.904 0 0 1 .153-1.268c.004-.014.01-.02.017-.02.016 0 .035.034.028.058a4.113 4.113 0 0 0-.139 1.26c.007.122.039.254.026.375-.002.012-.01.02-.019.02M18.355-36.197c-.02-.058-.015-.12-.015-.181v-.195c0-.128-.002-.257 0-.385.005-.241.013-.493.104-.72l.041-.018.045.048c.018.02.013.08-.011.08-.004 0-.01-.002-.015-.007l-.018-.015c-.06.224-.07.45-.071.683l-.008.36-.004.195c-.001.052.002.105-.017.154h-.031M18.604-36.192l-.03-.011c-.013-.047 0-.098.007-.146a16.659 16.659 0 0 0 .055-.487c.024-.227.042-.454.057-.682.001-.023.014-.035.027-.035.011 0 .022.011.021.033a17.734 17.734 0 0 1-.084 1.013l-.022.18c-.006.044-.004.098-.03.135M19.309-36.543l-.001-.057.127-.211.064-.108.03-.046.02-.025.021-.01.02.028a.17.17 0 0 1-.02.065l-.03.053-.064.102-.13.208h-.037" fill="#78cec5"/><path d="M15.728-37.725h-.006a.17.17 0 0 1-.1-.047c-.034-.03-.061-.067-.089-.102a2.101 2.101 0 0 1-.087-.12c-.102-.15-.197-.345-.152-.531.005-.02.014-.028.023-.028.015 0 .03.022.029.048a.662.662 0 0 0 .134.424c.045.066.095.127.146.189.028.034.08.085.132.085a.071.071 0 0 0 .024-.004l.015.03c-.013.034-.033.056-.07.056M16.01-38.04c-.022-.007-.044-.013-.063-.028l-.051-.043a1.43 1.43 0 0 1-.267-.324l-.002-.05.034-.002a1.339 1.339 0 0 0 .263.315l.052.043.046.056-.012.032" fill="#64c0b2"/><path d="M19.59-35.395l-.285 3.086a.55.55 0 0 1-.547.498h-2.156a.55.55 0 0 1-.548-.498l-.285-3.086h3.822" fill="#dae4f7"/><g clip-path="url(#cg)" transform="matrix(.02131 0 0 -.02131 -146.546 25.706)"><path d="M7690.61 2741.14a39.746 39.746 0 0 0 8.58-30.2c-.73-5.65-1.41-10.9-1.6-12.45h-43.22c-13.32 0-24.46 10.15-25.68 23.41l-13.41 144.77h173.33l1.44-12.15-89.24-54.33c-20.59-12.53-25.39-40.35-10.2-59.05" fill="url(#ch)"/></g><path d="M19.213-35.136h-3.066a.734.734 0 0 1-.735-.734h4.535a.734.734 0 0 1-.734.734M-23.714-37.222s.235.322.248.719c.012.396-.47 1.163.074 1.783 0 0-.322-.595-.025-.99.298-.397.62-.88-.297-1.512" fill="#dae4f7"/><path d="M-24.147-37.222s.169.232.177.516c.01.285-.337.836.054 1.28 0 0-.231-.427-.018-.711.213-.284.444-.631-.213-1.085M5.011-37.222s.235.322.248.719c.012.396-.47 1.163.074 1.783 0 0-.322-.595-.025-.99.298-.397.62-.88-.297-1.512" fill="#dae4f7"/><path d="M4.578-37.222s.169.232.177.516c.01.285-.337.836.054 1.28 0 0-.231-.427-.018-.711.213-.284.444-.631-.213-1.085" fill="#dae4f7"/></g></svg>