<svg xmlns="http://www.w3.org/2000/svg" viewBox="0 0 15 15" height="56.693" width="56.693"><defs><linearGradient id="h" spreadMethod="pad" gradientTransform="matrix(0 -2545.94 -2545.94 0 6593.38 5252.37)" gradientUnits="userSpaceOnUse" y2="0" x2="1" y1="0" x1="0"><stop offset="0" stop-color="#d7e6f7"/><stop offset=".229" stop-color="#d7e6f7"/><stop offset=".995" stop-color="#f3f3fb"/><stop offset="1" stop-color="#f3f3fb"/></linearGradient><linearGradient id="i" spreadMethod="pad" gradientTransform="matrix(0 -2545.94 -2545.94 0 6593.38 5252.37)" gradientUnits="userSpaceOnUse" y2="0" x2="1" y1="0" x1="0"><stop offset="0" stop-color="#d9eefa"/><stop offset=".229" stop-color="#d9eefa"/><stop offset=".995" stop-color="#fff"/><stop offset="1" stop-color="#fff"/></linearGradient><linearGradient id="g" spreadMethod="pad" gradientTransform="matrix(0 -2545.94 -2545.94 0 6593.38 5252.37)" gradientUnits="userSpaceOnUse" y2="0" x2="1" y1="0" x1="0"><stop offset="0" stop-color="#c5dbf3"/><stop offset=".229" stop-color="#c5dbf3"/><stop offset=".995" stop-color="#eeeef9"/><stop offset="1" stop-color="#eeeef9"/></linearGradient><linearGradient id="f" spreadMethod="pad" gradientTransform="matrix(0 -2545.94 -2545.94 0 6593.38 5252.37)" gradientUnits="userSpaceOnUse" y2="0" x2="1" y1="0" x1="0"><stop offset="0" stop-color="#c8e7f7"/><stop offset=".229" stop-color="#c8e7f7"/><stop offset=".995" stop-color="#fff"/><stop offset="1" stop-color="#fff"/></linearGradient><linearGradient id="c" spreadMethod="pad" gradientTransform="matrix(0 -2545.94 -2545.94 0 6593.38 5252.37)" gradientUnits="userSpaceOnUse" y2="0" x2="1" y1="0" x1="0"><stop offset="0" stop-color="#b2ddf4"/><stop offset=".229" stop-color="#b2ddf4"/><stop offset=".995" stop-color="#fff"/><stop offset="1" stop-color="#fff"/></linearGradient><linearGradient id="e" spreadMethod="pad" gradientTransform="matrix(0 -2545.94 -2545.94 0 6593.38 5252.37)" gradientUnits="userSpaceOnUse" y2="0" x2="1" y1="0" x1="0"><stop offset="0" stop-color="#abdbf4"/><stop offset=".229" stop-color="#abdbf4"/><stop offset=".995" stop-color="#e4f5fc"/><stop offset="1" stop-color="#e4f5fc"/></linearGradient><linearGradient id="d" spreadMethod="pad" gradientTransform="matrix(0 -2545.94 -2545.94 0 6593.38 5252.37)" gradientUnits="userSpaceOnUse" y2="0" x2="1" y1="0" x1="0"><stop offset="0" stop-color="#aecdee"/><stop offset=".229" stop-color="#aecdee"/><stop offset=".995" stop-color="#e7e7f7"/><stop offset="1" stop-color="#e7e7f7"/></linearGradient><linearGradient id="b" spreadMethod="pad" gradientTransform="matrix(0 -2545.94 -2545.94 0 6593.38 5252.37)" gradientUnits="userSpaceOnUse" y2="0" x2="1" y1="0" x1="0"><stop offset="0" stop-color="#86cbef"/><stop offset=".229" stop-color="#86cbef"/><stop offset=".995" stop-color="#d9f0fb"/><stop offset="1" stop-color="#d9f0fb"/></linearGradient><linearGradient id="a" spreadMethod="pad" gradientTransform="matrix(0 -2545.94 -2545.94 0 6593.38 5252.37)" gradientUnits="userSpaceOnUse" y2="0" x2="1" y1="0" x1="0"><stop offset="0" stop-color="#8bb7e7"/><stop offset=".229" stop-color="#8bb7e7"/><stop offset=".995" stop-color="#dddcf3"/><stop offset="1" stop-color="#dddcf3"/></linearGradient><path d="M-84.525-27.457h326.05V78.457h-326.05z" id="j"/></defs><g transform="matrix(1.28016 0 0 1.28016 166.503 394.52)"><rect width="11.717" height="11.717" x="-130.064" y="-308.18" rx=".567" ry=".567" fill="none" paint-order="fill markers stroke"/><path d="M-121.823-305.718c-.37-.422-1.04-.603-1.896-.603h-2.487a.356.356 0 0 0-.351.3l-1.035 6.566a.213.213 0 0 0 .21.247h1.536l.385-2.445-.012.076a.355.355 0 0 1 .35-.3h.73c1.432 0 2.554-.582 2.882-2.266.01-.05.018-.098.025-.145.098-.622 0-1.046-.337-1.43" fill="#003087"/><path d="M-121.823-305.718c-.37-.422-1.04-.603-1.896-.603h-2.487a.356.356 0 0 0-.351.3l-1.035 6.566a.213.213 0 0 0 .21.247h1.536l.385-2.445-.012.076a.355.355 0 0 1 .35-.3h.73c1.432 0 2.554-.582 2.882-2.266.01-.05.018-.098.025-.145.098-.622 0-1.046-.337-1.43" fill="#003087"/><path d="M-125.047-304.28a.312.312 0 0 1 .307-.263h1.95c.23 0 .446.015.642.047a2.701 2.701 0 0 1 .32.071 1.76 1.76 0 0 1 .342.137c.098-.623 0-1.046-.337-1.43-.37-.422-1.04-.603-1.896-.603h-2.487a.356.356 0 0 0-.351.3l-1.035 6.566a.213.213 0 0 0 .21.246h1.535l.386-2.445z" fill="#003087"/><path d="M-121.485-304.288a4.048 4.048 0 0 1-.026.145c-.328 1.683-1.45 2.266-2.882 2.266h-.73a.355.355 0 0 0-.35.3l-.374 2.368-.106.672a.187.187 0 0 0 .185.216h1.294a.311.311 0 0 0 .307-.263l.013-.066.243-1.545.016-.086a.311.311 0 0 1 .307-.262h.194c1.253 0 2.235-.51 2.522-1.982.12-.615.057-1.13-.26-1.49a1.236 1.236 0 0 0-.354-.274" fill="#009cde"/><path d="M-121.829-304.425a2.238 2.238 0 0 0-.319-.07 4.016 4.016 0 0 0-.643-.048h-1.949a.31.31 0 0 0-.307.263l-.414 2.627-.013.076a.355.355 0 0 1 .35-.3h.73c1.433 0 2.555-.582 2.883-2.266.01-.05.017-.098.025-.145a1.77 1.77 0 0 0-.27-.114l-.073-.023" fill="#012169"/></g></svg>